<svg width="380" height="480" viewBox="0 0 380 480" fill="none" xmlns="http://www.w3.org/2000/svg">
<path fill-rule="evenodd" clip-rule="evenodd" d="M225.648 220.436C223.695 246.991 97.8685 325.171 97.1343 327.365C96.8081 328.34 109.863 359.158 136.3 419.819L125.3 424.077C84.7514 359.832 65.5183 324.287 67.601 317.442C70.5829 307.641 103.125 275.4 165.228 220.718L225.648 220.436Z" fill="#B28B67"/>
<path fill-rule="evenodd" clip-rule="evenodd" d="M133.405 406.119L115.447 412.631C77.5803 370.071 62.7376 334.955 65.4439 317.063C67.2482 305.135 99.6784 272.948 162.735 220.501L226.936 220.501C224.746 281.998 108.12 327.599 106.56 330.22C105 332.84 120.352 358.507 133.405 406.119Z" fill="#2F3676"/>
<path fill-rule="evenodd" clip-rule="evenodd" d="M140.375 417.787C142.62 420.413 144.017 422.48 144.567 423.989C145.235 425.825 145.904 428.615 146.574 432.359C144.445 433.134 125.308 440.099 89.1629 453.255C85.8758 448.866 85.7679 445.89 88.8391 444.326C91.9103 442.763 94.4513 441.436 96.462 440.345L118.816 418.737C119.247 418.321 119.932 418.333 120.348 418.763C120.355 418.771 120.362 418.778 120.369 418.786L123.599 422.322C127.08 422.627 129.75 422.441 131.611 421.764C133.122 421.214 134.988 419.844 137.207 417.654L137.207 417.654C138.058 416.813 139.43 416.822 140.27 417.674C140.307 417.71 140.341 417.748 140.375 417.787Z" fill="#E4E4E4"/>
<path fill-rule="evenodd" clip-rule="evenodd" d="M211.181 220.436L267.233 354.482L322.324 467.806H309.327L167.122 220.436H211.181Z" fill="#997659"/>
<path fill-rule="evenodd" clip-rule="evenodd" d="M323.102 462.681C324.314 465.916 324.919 468.337 324.919 469.943C324.919 471.896 324.594 474.747 323.943 478.494C321.677 478.494 301.312 478.494 262.847 478.494C261.26 473.245 262.176 470.412 265.597 469.993C269.018 469.575 271.859 469.197 274.122 468.86L302.518 456.2C303.065 455.957 303.705 456.202 303.949 456.748C303.953 456.758 303.957 456.767 303.961 456.777L305.786 461.204C308.953 462.682 311.526 463.421 313.506 463.421C315.114 463.421 317.336 462.771 320.17 461.472L320.17 461.472C321.258 460.973 322.544 461.451 323.042 462.538C323.064 462.585 323.084 462.633 323.102 462.681Z" fill="#E4E4E4"/>
<path fill-rule="evenodd" clip-rule="evenodd" d="M317.349 444.265L288.468 449.66C266.137 416.956 172.682 282.86 162.436 220.436H226.732C260.95 265.563 296.063 411.02 317.349 444.265Z" fill="#5C63AB"/>
<path fill-rule="evenodd" clip-rule="evenodd" d="M191.128 89.9967C194.566 83.1547 196.122 75.4322 193.645 67.8313C186.509 45.9309 156.421 58.6419 153.135 71.4125C149.85 84.1831 157.69 112.544 166.063 112.593C169.402 112.612 175.6 108.98 181.392 103.217L184.589 134.238L209.814 127.949L191.128 89.9967Z" fill="#B28B67"/>
<path fill-rule="evenodd" clip-rule="evenodd" d="M152.014 77.0584C151.9 75.5376 152.107 73.7657 152.255 72.263C152.447 70.3258 153.009 68.4822 153.69 66.7069C154.972 63.3645 156.72 60.1989 158.827 57.4082C162.674 52.3108 168.248 48.5342 174.462 47.76C177.6 47.3691 180.843 47.7834 183.838 49.0725C186.543 50.2373 189.365 52.2411 192.355 51.6903C195.608 51.0907 197.846 47.5563 199.983 45.185C202.393 42.5116 205.12 40.3215 208.368 38.9248C213.809 36.5852 219.61 37.156 224.668 40.7934C230.051 44.6641 234.869 51.1074 233.759 58.2912C233.553 59.6266 233.154 60.8085 232.427 61.8868C231.76 62.8757 230.653 64.0271 230.613 65.3515C230.57 66.7593 232.1 68.1805 232.824 69.2606C233.863 70.8079 234.812 72.4672 235.094 74.3603C235.556 77.4694 234.354 80.8471 232.819 83.349C231.257 85.8949 229.002 87.6938 226.417 88.9084C224.691 89.7193 222.885 90.3796 221.006 90.7051C220.074 90.8667 219.203 90.816 218.265 90.8367C217.354 90.8569 216.928 91.2043 216.313 91.8559C213.455 94.8833 210.008 96.6383 206 97.2935C202.617 97.8462 198.598 98.0026 195.333 96.4258C191.707 94.6746 190.907 91.2124 190.696 87.353C190.039 87.9074 188.024 88.6515 188.897 86.8771C189.242 86.1744 190.11 85.7072 190.653 85.2089C191.287 84.6287 191.902 83.9295 192.31 83.1392C193.953 79.9481 190.305 75.1975 187.2 75.0391C182.585 74.8038 183.124 81.0548 180.45 83.3732C178.913 84.7063 176.767 83.9433 175.137 83.0243C172.953 81.7931 171.197 79.8788 169.596 77.8844C168.277 76.242 167.011 74.5587 165.677 72.9297C165.055 72.1689 163.036 70.0829 163.502 68.9312C160.278 69.09 157.172 71.2082 154.94 73.5271C154.018 74.4857 153.373 75.4497 153.092 76.8061C153.031 77.0967 152.952 77.9358 152.618 78.0526C151.997 78.2701 152.042 77.4406 152.014 77.0584Z" fill="#191847"/>
<path fill-rule="evenodd" clip-rule="evenodd" d="M122.33 211.059L88.2232 236.906C78.8971 239.586 71.1233 242.853 64.902 246.707C63.4405 248.079 61.6933 250.838 67.8438 250.259C73.9944 249.68 80.4899 249.346 81.3762 251.422C82.2625 253.497 78.5792 256.062 80.3462 258.853C81.5242 260.713 86.8523 255.904 96.3304 244.425L130.295 229.711L122.33 211.059ZM254.991 209.615L232.36 210.099C247.118 254.746 255.078 278.433 256.24 281.16C258.854 287.297 253.715 296.802 251.535 301.9C258.979 305.06 257.98 292.893 267.373 297.044C275.947 300.833 282.541 307.854 292.262 301.649C293.457 300.886 294.732 298.071 291.495 295.944C283.431 290.646 271.782 281.33 270.175 278.225C267.985 273.99 262.924 251.12 254.991 209.615Z" fill="#B28B67"/>
<path fill-rule="evenodd" clip-rule="evenodd" d="M189.022 116.234L179.629 114.799C145.402 145.275 132.131 202.908 90.0692 234.049L100.542 246.515C174.273 236.122 191.366 165.808 189.022 116.234Z" fill="#E87613"/>
<path fill-rule="evenodd" clip-rule="evenodd" d="M231.892 232.636C194.341 233.291 166.718 233.773 149.026 234.082C145.239 234.148 145.858 228.695 146.357 225.94C152.121 194.144 176.186 159.558 175.398 114.455L199.236 110.308C219.559 141.603 227.076 180.439 231.892 232.636Z" fill="#DDE3E9"/>
<path fill-rule="evenodd" clip-rule="evenodd" d="M229.624 140.888C233.079 139.834 235.787 137.47 237.751 133.796C246.213 117.957 242.907 109.376 233.521 106.7C224.135 104.024 215.911 110.017 201.036 110.276C200.227 110.291 199.486 110.354 198.815 110.467L191.34 111.022C171.135 183.799 166.057 232.208 176.106 256.249L241.329 255.11C245.35 264.009 249.179 271.489 252.817 277.549L270.589 277.238C271.322 223.395 257.668 177.945 229.624 140.888Z" fill="#FF9B21"/>
<path fill-rule="evenodd" clip-rule="evenodd" d="M226.477 218.174C224.724 235.288 221.606 247.741 217.124 255.533L241.329 255.11C236.639 244.73 231.688 232.418 226.477 218.174Z" fill="black" fill-opacity="0.1"/>
</svg>
