<svg width="205" height="77" viewBox="0 0 205 77" fill="none" xmlns="http://www.w3.org/2000/svg">
<path d="M46.9858 1.85745H0V70.7854H46.9858V1.85745Z" fill="#FAB95B"/>
<path d="M34.1811 72.5009L0 70.7174V36.2534V1.78938L34.1811 0.00585938V72.5009Z" fill="#1A3263"/>
<path d="M27.6226 45.1717C28.5389 45.1717 29.2817 44.3804 29.2817 43.4044C29.2817 42.4283 28.5389 41.637 27.6226 41.637C26.7064 41.637 25.9636 42.4283 25.9636 43.4044C25.9636 44.3804 26.7064 45.1717 27.6226 45.1717Z" fill="#FAB95B"/>
<path d="M27.6226 43.6695L28.7715 45.7903L29.9245 47.9111H27.6226H25.3207L26.4738 45.7903L27.6226 43.6695Z" fill="#FAB95B"/>
<path d="M35.6625 72.5012L33.5693 72.4949L33.6519 0.00613403H35.6625V72.5012Z" fill="#6C63FF"/>
<g opacity="0.1">
<path opacity="0.1" d="M35.6858 72.495H33.5693L33.6752 0H35.6858V72.495Z" fill="white"/>
</g>
<path d="M27.6225 39.3556C29.8473 39.3556 31.6508 37.568 31.6508 35.363C31.6508 33.1579 29.8473 31.3704 27.6225 31.3704C25.3977 31.3704 23.5942 33.1579 23.5942 35.363C23.5942 37.568 25.3977 39.3556 27.6225 39.3556Z" fill="white"/>
<path opacity="0.1" d="M27.0471 39.3556C29.5897 39.3556 31.6509 37.3127 31.6509 34.7926C31.6509 32.2726 29.5897 30.2296 27.0471 30.2296C24.5045 30.2296 22.4434 32.2726 22.4434 34.7926C22.4434 37.3127 24.5045 39.3556 27.0471 39.3556Z" fill="black"/>
<path d="M64.6826 25.6114L68.1826 25.6086L68.1997 47.0636L81.4647 47.053L81.4671 50.098L64.7021 50.1114L64.6826 25.6114ZM93.936 31.3631C96.5026 31.361 98.4631 31.9895 99.8175 33.2484C101.195 34.5073 101.885 36.3851 101.887 38.8817L101.896 50.0817L98.7109 50.0843L98.7089 47.6343C98.1496 48.4981 97.3452 49.1637 96.2955 49.6312C95.2692 50.0754 94.0444 50.298 92.6211 50.2991C90.5444 50.3008 88.8757 49.8005 87.6149 48.7981C86.3774 47.7958 85.758 46.4779 85.7567 44.8446C85.7554 43.2113 86.3494 41.9041 87.5386 40.9232C88.7278 39.9189 90.6174 39.4157 93.2074 39.4137L98.5274 39.4094L98.5269 38.7444C98.5257 37.2978 98.1048 36.1898 97.2642 35.4204C96.4236 34.6511 95.1866 34.2671 93.5533 34.2684C92.4566 34.2693 91.3834 34.4568 90.3337 34.831C89.284 35.1818 88.3977 35.6608 87.6749 36.2681L86.2729 33.7492C87.2289 32.9784 88.3718 32.3942 89.7015 31.9965C91.0311 31.5754 92.4426 31.3643 93.936 31.3631ZM93.179 47.7087C94.4623 47.7077 95.5704 47.4268 96.5033 46.866C97.4362 46.282 98.1122 45.4647 98.5314 44.4144L98.5293 41.8244L93.3493 41.8285C90.5026 41.8308 89.0801 42.7886 89.0816 44.702C89.0823 45.6353 89.4446 46.37 90.1684 46.9061C90.8921 47.4422 91.8957 47.7097 93.179 47.7087ZM120.034 31.3423C121.831 31.3408 123.441 31.7362 124.865 32.5284C126.289 33.3206 127.398 34.428 128.193 35.8507C129.01 37.2734 129.42 38.9181 129.421 40.7848C129.423 42.6514 129.016 44.3084 128.2 45.7557C127.408 47.1797 126.301 48.2889 124.878 49.0834C123.455 49.8779 121.846 50.2758 120.049 50.2772C118.672 50.2783 117.412 50.011 116.268 49.4753C115.125 48.9395 114.179 48.1586 113.432 47.1325L113.434 50.0725L110.214 50.0751L110.193 24.1051L113.553 24.1024L113.561 34.3224C114.307 33.3418 115.24 32.6061 116.36 32.1152C117.479 31.601 118.704 31.3433 120.034 31.3423ZM119.767 47.3375C120.957 47.3365 122.018 47.0673 122.951 46.5299C123.907 45.9692 124.653 45.1986 125.189 44.2181C125.748 43.2144 126.027 42.0708 126.026 40.7875C126.025 39.5041 125.745 38.3727 125.184 37.3931C124.646 36.3902 123.899 35.6208 122.942 35.0849C122.008 34.549 120.946 34.2815 119.756 34.2825C118.59 34.2834 117.528 34.5526 116.572 35.09C115.616 35.6274 114.87 36.398 114.334 37.4018C113.798 38.3822 113.53 39.5141 113.531 40.7974C113.532 42.0808 113.802 43.2239 114.339 44.2268C114.877 45.2064 115.624 45.9758 116.581 46.535C117.538 47.0709 118.6 47.3384 119.767 47.3375ZM144.116 50.258C142.273 50.2595 140.616 49.8525 139.145 49.037C137.675 48.2215 136.519 47.1024 135.678 45.6798C134.86 44.2338 134.45 42.6008 134.449 40.7808C134.447 38.9608 134.854 37.3388 135.67 35.9148C136.509 34.4674 137.663 33.3465 139.132 32.552C140.602 31.7342 142.258 31.3245 144.101 31.3231C145.945 31.3216 147.59 31.7286 149.037 32.5441C150.508 33.3363 151.652 34.4554 152.47 35.9014C153.311 37.324 153.732 38.9454 153.734 40.7654C153.735 42.5854 153.317 44.219 152.478 45.6664C151.662 47.0904 150.52 48.2113 149.05 49.0291C147.604 49.8469 145.96 50.2566 144.116 50.258ZM144.114 47.318C145.304 47.3171 146.366 47.0479 147.298 46.5105C148.255 45.9497 149.001 45.1792 149.537 44.1987C150.072 43.195 150.34 42.0514 150.339 40.7681C150.338 39.4847 150.069 38.3533 149.531 37.3737C148.994 36.3708 148.246 35.6014 147.289 35.0655C146.356 34.5296 145.294 34.2621 144.104 34.2631C142.914 34.264 141.841 34.5332 140.884 35.0706C139.951 35.608 139.205 36.3786 138.646 37.3824C138.11 38.3628 137.843 39.4947 137.844 40.778C137.845 42.0614 138.114 43.2045 138.652 44.2074C139.212 45.187 139.96 45.9564 140.893 46.5156C141.851 47.0515 142.924 47.319 144.114 47.318ZM163.696 34.5974C164.278 33.5236 165.141 32.7063 166.284 32.1454C167.427 31.5844 168.815 31.3033 170.448 31.302L170.451 34.557C170.264 34.5338 170.007 34.5224 169.681 34.5226C167.861 34.5241 166.426 35.0736 165.377 36.1711C164.351 37.2452 163.839 38.7856 163.841 40.7923L163.848 50.0323L160.488 50.035L160.473 31.485L163.693 31.4824L163.696 34.5974ZM184.479 50.2258C182.635 50.2273 180.978 49.8203 179.508 49.0048C178.037 48.1893 176.881 47.0702 176.04 45.6476C175.222 44.2016 174.812 42.5686 174.811 40.7486C174.81 38.9286 175.217 37.3066 176.032 35.8826C176.871 34.4352 178.025 33.3143 179.494 32.5198C180.964 31.702 182.62 31.2923 184.463 31.2909C186.307 31.2894 187.952 31.6964 189.399 32.5119C190.87 33.3041 192.014 34.4232 192.832 35.8692C193.673 37.2918 194.095 38.9132 194.096 40.7332C194.097 42.5532 193.679 44.1868 192.84 45.6342C192.024 47.0582 190.882 48.1791 189.413 48.9969C187.967 49.8147 186.322 50.2244 184.479 50.2258ZM184.476 47.2858C185.666 47.2849 186.728 47.0157 187.661 46.4783C188.617 45.9175 189.363 45.1469 189.899 44.1665C190.435 43.1628 190.702 42.0192 190.701 40.7359C190.7 39.4525 190.431 38.3211 189.893 37.3415C189.356 36.3386 188.609 35.5692 187.651 35.0333C186.718 34.4974 185.656 34.2299 184.466 34.2309C183.276 34.2318 182.203 34.501 181.246 35.0384C180.314 35.5758 179.567 36.3464 179.008 37.3502C178.472 38.3306 178.205 39.4625 178.206 40.7458C178.207 42.0292 178.476 43.1723 179.014 44.1752C179.574 45.1548 180.322 45.9242 181.256 46.4834C182.213 47.0193 183.286 47.2868 184.476 47.2858Z" fill="black"/>
</svg>
