<svg width="354" height="296" viewBox="0 0 354 296" fill="none" xmlns="http://www.w3.org/2000/svg">
<g clip-path="url(#clip0)">
<path d="M247.04 295.865C306.139 295.865 354.049 288.71 354.049 279.885C354.049 271.059 306.139 263.904 247.04 263.904C187.941 263.904 140.031 271.059 140.031 279.885C140.031 288.71 187.941 295.865 247.04 295.865Z" fill="#3F3D56"/>
<path d="M67.3713 24.3062L107.179 24.3062V20.547L67.3713 20.547V24.3062Z" fill="#F2F2F2"/>
<path d="M153.242 14.1541H65.0594V96.7954H153.242V14.1541Z" fill="#3F3D56"/>
<path d="M99.7381 29.2212H69.6832V74.4228H99.7381V29.2212Z" fill="#F2F2F2"/>
<path d="M138.05 21.916H112.949V24.1984H138.05V21.916Z" fill="#F2F2F2"/>
<path d="M143.334 30.5909H107.004V32.8734H143.334V30.5909Z" fill="#F2F2F2"/>
<path d="M143.334 36.9832H107.004V39.2656H143.334V36.9832Z" fill="#F2F2F2"/>
<path d="M143.334 43.8319H107.004V46.1143H143.334V43.8319Z" fill="#F2F2F2"/>
<path d="M162.49 36.1772L202.298 36.1772V32.4181L162.49 32.4181V36.1772Z" fill="#F2F2F2"/>
<path d="M248.361 26.0251H160.178V108.666H248.361V26.0251Z" fill="#3F3D56"/>
<path d="M194.857 41.0924H164.802V86.294H194.857V41.0924Z" fill="#F2F2F2"/>
<path d="M233.169 33.7871H208.068V36.0695H233.169V33.7871Z" fill="#F2F2F2"/>
<path d="M238.453 42.4622H202.123V44.7446H238.453V42.4622Z" fill="#F2F2F2"/>
<path d="M238.453 48.8542H202.123V51.1367H238.453V48.8542Z" fill="#F2F2F2"/>
<path d="M238.453 55.703H202.123V57.9854H238.453V55.703Z" fill="#F2F2F2"/>
<path d="M143.334 50.6807H107.004V52.9631H143.334V50.6807Z" fill="#F2F2F2"/>
<path d="M143.334 57.0728H107.004V59.3552H143.334V57.0728Z" fill="#F2F2F2"/>
<path d="M143.334 63.9215H107.004V66.2039H143.334V63.9215Z" fill="#F2F2F2"/>
<path d="M143.334 70.7703H107.004V73.0527H143.334V70.7703Z" fill="#F2F2F2"/>
<path d="M229.717 49.1843H90.3344V180.641H229.717V49.1843Z" fill="#FAB95B"/>
<path d="M135.738 72.1399H99.738V118.255H135.738V72.1399Z" fill="#F2F2F2"/>
<path d="M205.79 61.3757H165.982V65.1349H205.79V61.3757Z" fill="#1A3263"/>
<path d="M113.811 133.157H99.7174V136.916H113.811V133.157Z" fill="#1A3263"/>
<path d="M140.02 139.993H99.7174V143.752H140.02V139.993Z" fill="#1A3263"/>
<path d="M213.949 75.0483H156.586V78.8075H213.949V75.0483Z" fill="#F2F2F2"/>
<path d="M213.949 85.6445H156.586V89.4037H213.949V85.6445Z" fill="#F2F2F2"/>
<path d="M213.949 96.2407H156.586V99.9999H213.949V96.2407Z" fill="#F2F2F2"/>
<path d="M213.949 106.837H156.586V110.596H213.949V106.837Z" fill="#F2F2F2"/>
<path d="M213.949 117.433H156.586V121.192H213.949V117.433Z" fill="#F2F2F2"/>
<path d="M213.949 128.029H156.586V131.789H213.949V128.029Z" fill="#F2F2F2"/>
<path d="M213.949 138.626H156.586V142.385H213.949V138.626Z" fill="#F2F2F2"/>
<path d="M210.308 149.309L197.349 167.082L191.903 159.612C191.73 159.375 191.525 159.187 191.299 159.058C191.073 158.93 190.831 158.864 190.587 158.864C190.342 158.864 190.1 158.93 189.874 159.058C189.648 159.187 189.443 159.375 189.27 159.612L189.074 159.21C188.347 160.208 188.543 162.226 189.27 163.223L196.337 172.916C196.603 173.281 196.964 173.486 197.341 173.486C197.717 173.487 198.079 173.282 198.345 172.916L212.939 152.92C213.667 151.923 213.931 150.095 213.204 149.098C212.477 148.101 211.035 148.312 210.308 149.309Z" fill="#57B894"/>
<path opacity="0.1" d="M210.308 149.309L197.349 167.082L191.903 159.612C191.73 159.375 191.525 159.187 191.299 159.058C191.073 158.93 190.831 158.864 190.587 158.864C190.342 158.864 190.1 158.93 189.874 159.058C189.648 159.187 189.443 159.375 189.27 159.612L189.074 159.21C188.347 160.208 188.543 162.226 189.27 163.223L196.337 172.916C196.603 173.281 196.964 173.486 197.341 173.486C197.717 173.487 198.079 173.282 198.345 172.916L212.939 152.92C213.667 151.923 213.931 150.095 213.204 149.098C212.477 148.101 211.035 148.312 210.308 149.309Z" fill="black"/>
<path d="M210.424 148.304L197.331 166.159L191.828 158.654C191.654 158.416 191.446 158.227 191.218 158.098C190.99 157.969 190.745 157.903 190.498 157.903C190.251 157.903 190.007 157.969 189.778 158.098C189.55 158.227 189.343 158.416 189.168 158.654C188.993 158.892 188.855 159.175 188.76 159.486C188.666 159.798 188.617 160.131 188.617 160.468C188.617 160.805 188.666 161.139 188.76 161.45C188.855 161.761 188.993 162.044 189.168 162.282L196.308 172.019C196.577 172.386 196.942 172.592 197.323 172.592C197.703 172.592 198.068 172.386 198.337 172.02L213.083 151.932C213.258 151.694 213.397 151.411 213.491 151.1C213.586 150.789 213.635 150.455 213.635 150.118C213.635 149.781 213.586 149.448 213.492 149.136C213.397 148.825 213.258 148.542 213.084 148.304C212.731 147.823 212.253 147.553 211.754 147.553C211.255 147.553 210.777 147.823 210.424 148.304Z" fill="#57B894"/>
<path opacity="0.1" d="M340.37 263.73C340.37 288.173 315.725 280.613 285.55 280.613C255.375 280.613 231.096 288.173 231.096 263.73C231.096 239.288 255.738 233.972 285.913 233.972C316.088 233.972 340.37 239.288 340.37 263.73Z" fill="black"/>
<path d="M340.37 259.165C340.37 283.607 315.725 276.047 285.55 276.047C255.375 276.047 231.096 283.607 231.096 259.165C231.096 234.722 255.738 229.406 285.913 229.406C316.088 229.406 340.37 234.722 340.37 259.165Z" fill="#3F3D56"/>
<path d="M237.348 182.591L236.231 184.384C236.231 184.384 222.653 186.146 223.204 189.194C223.755 192.241 239.552 185.131 239.552 185.131L237.348 182.591Z" fill="#FFC1C7"/>
<path d="M261.962 181.068C261.962 181.068 247.451 188.178 239.552 185.131L243.226 195.288C243.226 195.288 261.962 194.526 265.268 189.955C268.574 185.385 261.962 181.068 261.962 181.068Z" fill="#FF9B21"/>
<path opacity="0.1" d="M262.849 180.641C262.849 180.641 248.338 187.751 240.439 184.703L244.113 194.861C244.113 194.861 262.849 194.099 266.155 189.528C269.461 184.957 262.849 180.641 262.849 180.641Z" fill="#FF9B21"/>
<path d="M252.135 126.599C257.511 126.599 261.87 120.574 261.87 113.141C261.87 105.708 257.511 99.6827 252.135 99.6827C246.758 99.6827 242.399 105.708 242.399 113.141C242.399 120.574 246.758 126.599 252.135 126.599Z" fill="#FFC1C7"/>
<path d="M260.436 125.776C260.771 126.661 261.196 127.474 261.697 128.193C263.03 130.199 264.622 131.845 266.39 133.047C260.864 134.6 255.283 135.747 249.67 136.485C250.262 133.599 249.482 130.513 248.434 127.888C247.385 125.262 246.049 122.814 245.393 119.956L251.973 120.2C253.167 120.244 254.365 120.294 255.558 120.213C256.451 120.153 257.937 119.414 258.77 119.686C260.53 120.261 259.667 123.617 260.436 125.776Z" fill="#FFC1C7"/>
<path d="M282.534 188.94L288.045 198.081C288.045 198.081 297.229 227.791 277.208 230.838C257.186 233.886 242.308 228.553 242.308 228.553C242.308 228.553 234.225 223.22 234.042 227.283C233.858 231.346 233.123 242.773 228.715 253.946L224.858 266.135C224.858 266.135 222.837 268.928 223.388 272.737C223.939 276.546 211.081 277.816 211.265 272.737C211.265 272.737 213.102 268.42 213.102 265.881C213.102 263.342 216.041 257.247 216.041 257.247L221.368 220.681C221.368 220.681 221 201.89 233.491 205.445C245.981 209 263.799 204.683 263.799 204.683L267.84 185.131L282.534 188.94Z" fill="#2F2E41"/>
<path opacity="0.1" d="M282.534 188.94L288.045 198.081C288.045 198.081 297.229 227.791 277.208 230.838C257.186 233.886 242.308 228.553 242.308 228.553C242.308 228.553 234.225 223.22 234.042 227.283C233.858 231.346 233.123 242.773 228.715 253.946L224.858 266.135C224.858 266.135 222.837 268.928 223.388 272.737C223.939 276.546 211.081 277.816 211.265 272.737C211.265 272.737 213.102 268.42 213.102 265.881C213.102 263.342 216.041 257.247 216.041 257.247L221.368 220.681C221.368 220.681 221 201.89 233.491 205.445C245.981 209 263.799 204.683 263.799 204.683L267.84 185.131L282.534 188.94Z" fill="black"/>
<path d="M261.87 188.271C261.87 188.271 278.677 179.544 288.045 198.081C288.045 198.081 290.433 226.776 280.881 228.045C271.329 229.315 258.839 229.061 255.9 224.744C252.961 220.427 234.409 208.239 234.409 208.239C234.409 208.239 225.174 201.727 223.363 210.188C221.551 218.65 221.367 220.681 221.367 220.681C221.367 220.681 211.816 230.331 207.958 232.108C207.958 232.108 205.387 237.187 203.917 237.187C202.448 237.187 193.447 239.98 194.366 230.585L209.244 211.794L224.123 191.733C224.123 191.733 228.347 183.099 239.185 187.67C246.377 190.629 253.672 193.087 261.043 195.034L261.87 188.271Z" fill="#2F2E41"/>
<path d="M222.837 272.229C222.837 272.229 226.327 284.418 223.388 285.942C220.449 287.465 214.204 286.449 214.204 286.449C214.204 286.449 206.856 285.18 205.02 285.434C203.183 285.688 195.652 283.656 196.754 279.593C197.856 275.53 203.55 276.546 203.55 276.546L208.693 273.245C208.693 273.245 209.244 270.706 210.53 271.721C211.816 272.737 215.49 276.546 222.837 272.229Z" fill="#CBCEDA"/>
<path d="M203.734 236.171C203.734 236.171 207.591 248.106 201.346 247.09C195.101 246.074 190.325 244.297 188.488 244.043C186.721 243.799 181.725 241.44 182.491 236.74C182.533 236.436 182.549 236.127 182.541 235.818C182.541 235.187 183.161 233.949 188.121 234.14C188.121 234.14 191.794 234.14 193.264 230.585C193.264 230.585 198.774 240.234 203.734 236.171Z" fill="#CBCEDA"/>
<path d="M245.43 134.598C245.43 134.598 258.655 123.171 269.676 134.598C280.697 146.025 288.045 198.081 288.045 198.081L262.513 190.209C262.513 190.209 261.411 184.115 259.941 183.099C258.472 182.084 258.288 177.767 258.288 177.767C258.288 177.767 250.39 174.466 250.941 161.769C251.492 149.072 245.43 134.598 245.43 134.598Z" fill="#FF9B21"/>
<path d="M252.226 135.106H245.43C245.43 135.106 241.389 141.455 240.838 157.452L238.634 170.149C238.634 170.149 234.042 185.385 236.797 187.924C239.552 190.463 244.879 190.209 245.981 185.131C247.083 180.052 254.614 150.596 254.614 150.596L252.226 135.106Z" fill="#FF9B21"/>
<path d="M250.279 95.6261C251.964 94.6709 253.807 94.3808 255.605 94.7881C257.402 95.1955 259.082 96.2843 260.458 97.9334C263.986 102.286 264.697 109.385 265.589 115.804C266.481 122.223 268.275 129.372 272.651 131.846C270.679 132.211 268.676 132.13 266.723 131.608L273.336 139.801L262.195 134.781C258.699 133.205 255.027 131.61 251.406 132.5C245.408 133.974 241.233 141.769 235.472 144.507L236.112 140.189L232.247 140.148C233.173 139.201 233.93 137.974 234.461 136.561C234.279 136.255 234.054 136.003 233.8 135.819C233.546 135.636 233.268 135.524 232.983 135.492C231.372 121.599 237.339 107.865 245.116 98.7884C246.646 97.0031 248.339 95.2883 250.314 94.8417C252.29 94.3951 254.597 95.6164 255.284 98.2159" fill="#2F2E41"/>
</g>
<defs>
<clipPath id="clip0">
<rect width="352.925" height="296" fill="white" transform="translate(0.986328)"/>
</clipPath>
</defs>
</svg>
