<svg width="500" height="497" viewBox="0 0 500 497" fill="none" xmlns="http://www.w3.org/2000/svg">
<g opacity="0.5">
<path opacity="0.5" d="M347.845 28.1912L4.99463 27.4448L3.77205 458.63L346.622 459.376L347.845 28.1912Z" fill="url(#paint0_linear)"/>
</g>
<path d="M341.586 34.0261L9.44189 33.3029L8.26193 449.444L340.406 450.167L341.586 34.0261Z" fill="#F2F2F2"/>
<path d="M150.044 50.636L35.3359 50.2834L35.3245 53.4008L150.033 53.7534L150.044 50.636Z" fill="#E0E0E0"/>
<path opacity="0.7" d="M149.956 65.7114L35.2482 65.3588L35.2368 68.4761L149.945 68.8287L149.956 65.7114Z" fill="#6C63FF"/>
<path d="M281.787 51.3074L167.079 50.9548L167.067 54.0721L281.775 54.4247L281.787 51.3074Z" fill="#E0E0E0"/>
<path d="M299.148 146.885L184.44 146.533L184.428 149.65L299.136 150.003L299.148 146.885Z" fill="#E0E0E0"/>
<path d="M301.788 156.108L187.08 155.755L187.068 158.873L301.777 159.225L301.788 156.108Z" fill="#E0E0E0"/>
<path d="M307.114 165.351L192.406 164.999L192.394 168.116L307.102 168.469L307.114 165.351Z" fill="#E0E0E0"/>
<path d="M298.282 295.129L183.574 294.776L183.563 297.894L298.271 298.246L298.282 295.129Z" fill="#E0E0E0"/>
<path d="M300.922 304.358L186.214 304.006L186.202 307.123L300.911 307.476L300.922 304.358Z" fill="#E0E0E0"/>
<path d="M306.248 313.595L191.54 313.242L191.528 316.359L306.236 316.712L306.248 313.595Z" fill="#E0E0E0"/>
<g opacity="0.5">
<path opacity="0.5" d="M157.414 111.816L35.876 111.55L35.5483 226.781L157.086 227.047L157.414 111.816Z" fill="url(#paint1_linear)"/>
</g>
<path d="M156.263 114.327L36.6289 114.065L36.3154 224.274L155.95 224.537L156.263 114.327Z" fill="#F5F5F5"/>
<g opacity="0.5">
<path opacity="0.5" d="M152.496 121.007L40.8184 120.76L40.6134 192.466L152.291 192.713L152.496 121.007Z" fill="url(#paint2_linear)"/>
</g>
<path fill-rule="evenodd" clip-rule="evenodd" d="M151.723 121.842L41.5809 121.598L41.4287 174.822L59.8699 148.42L71.4535 165.923L96.5839 141.845L117.996 166.027L136.891 130.282L151.636 152.248L151.723 121.842ZM61.723 131.408C61.7112 135.558 58.1006 138.915 53.6585 138.905C49.2163 138.895 45.6248 135.523 45.6367 131.373C45.6485 127.223 49.2591 123.867 53.7012 123.876C58.1433 123.886 61.7348 127.258 61.723 131.408Z" fill="white"/>
<g opacity="0.5">
<path opacity="0.5" d="M156.548 260.066L35.01 259.8L34.6823 375.031L156.22 375.298L156.548 260.066Z" fill="url(#paint3_linear)"/>
</g>
<path d="M155.397 262.571L35.7627 262.309L35.4492 372.518L155.084 372.78L155.397 262.571Z" fill="#F5F5F5"/>
<g opacity="0.5">
<path opacity="0.5" d="M151.63 269.257L39.9524 269.01L39.7474 340.717L151.425 340.964L151.63 269.257Z" fill="url(#paint4_linear)"/>
</g>
<path fill-rule="evenodd" clip-rule="evenodd" d="M40.7149 269.842L150.857 270.086L150.77 300.491L136.025 278.525L117.131 314.277L95.7181 290.089L70.5876 314.173L59.0041 296.664L40.5627 323.065L40.7149 269.842Z" fill="white"/>
<path opacity="0.4" d="M52.7925 287.156C57.2347 287.165 60.8453 283.809 60.8571 279.659C60.8689 275.509 57.2774 272.137 52.8353 272.127C48.3932 272.117 44.7825 275.473 44.7707 279.624C44.7589 283.774 48.3504 287.146 52.7925 287.156Z" fill="#BDBDBD"/>
<g opacity="0.5">
<path opacity="0.5" d="M144.725 5.80217L53.1674 430.137L391.409 493.653L482.967 69.3177L144.725 5.80217Z" fill="url(#paint5_linear)"/>
</g>
<path d="M147.893 12.3862L59.5297 421.923L387.2 483.455L475.564 73.9177L147.893 12.3862Z" fill="white"/>
<path d="M400.352 80.0186L168.529 35.7887L167.822 39.123L399.645 83.3528L400.352 80.0186Z" fill="#E0E0E0"/>
<path d="M332.507 390.212L100.684 345.982L99.977 349.316L331.8 393.546L332.507 390.212Z" fill="#E0E0E0"/>
<path d="M275.688 399.015L96.5486 364.849L95.8414 368.182L274.981 402.348L275.688 399.015Z" fill="#E0E0E0"/>
<path opacity="0.7" d="M159.163 396.431L92.4222 383.728L91.715 387.054L158.456 399.757L159.163 396.431Z" fill="#6C63FF"/>
<path opacity="0.7" d="M280.308 76.7579L164.394 54.6662L163.687 57.9967L279.601 80.0884L280.308 76.7579Z" fill="#6C63FF"/>
<path d="M369.264 113.406L160.275 73.5379L159.568 76.8717L368.557 116.74L369.264 113.406Z" fill="#E0E0E0"/>
<path opacity="0.7" d="M207.079 102.102L156.143 92.4154L155.436 95.7386L206.371 105.425L207.079 102.102Z" fill="#3AD29F"/>
<path d="M383.842 155.519L152.019 111.289L151.312 114.624L383.135 158.854L383.842 155.519Z" fill="#E0E0E0"/>
<g opacity="0.5">
<path opacity="0.5" d="M171.69 191.201L147.598 303.278L356.019 342.555L380.111 230.479L171.69 191.201Z" fill="url(#paint6_linear)"/>
</g>
<path d="M378.653 231.055L172.87 192.273L149.309 301.883L355.092 340.665L378.653 231.055Z" fill="white"/>
<g clip-path="url(#clip0)">
<path fill-rule="evenodd" clip-rule="evenodd" d="M258.366 281.655L263.872 282.438L263.06 287.44L265.844 287.836C267.13 288.019 268.485 288.003 269.762 287.81C270.389 287.715 271.101 287.559 271.743 287.328C271.112 286.315 270.9 285.12 270.965 283.981C271.054 282.432 271.722 280.494 273.079 279.464L273.754 278.952L274.364 279.543C275.899 281.03 277.078 282.97 277.016 284.981C279.195 284.732 281.629 285.211 283.318 286.418L284.012 286.913L283.502 287.547C281.505 290.029 278.111 290.402 274.949 289.801C268.471 299.675 257.284 303.194 244.7 301.404C238.2 300.479 232.585 297.471 230.02 291.862L229.978 291.77L229.628 290.805C228.846 288.385 228.866 285.859 229.525 283.426L229.722 282.697L234.43 283.367L235.241 278.365L240.747 279.148L241.54 274.255L252.552 275.822L253.346 270.928L259.953 271.868L258.366 281.655Z" fill="black"/>
<path fill-rule="evenodd" clip-rule="evenodd" d="M239.68 278.835L240.045 278.879L239.525 282.472L239.16 282.427L239.68 278.835ZM238.98 278.749L239.359 278.795L238.84 282.388L238.46 282.342L238.98 278.749ZM238.279 278.663L238.659 278.71L238.139 282.303L237.76 282.256L238.279 278.663ZM237.579 278.578L237.958 278.624L237.439 282.217L237.059 282.171L237.579 278.578ZM236.879 278.492L237.258 278.539L236.739 282.131L236.359 282.085L236.879 278.492ZM236.193 278.408L236.558 278.453L236.038 282.046L235.673 282.001L236.193 278.408ZM235.86 278.002L240.482 278.567L239.859 282.878L235.236 282.313L235.86 278.002Z" fill="white"/>
<path fill-rule="evenodd" clip-rule="evenodd" d="M246.505 274.664L246.871 274.709L246.351 278.301L245.986 278.257L246.505 274.664ZM245.805 274.579L246.185 274.625L245.665 278.218L245.286 278.171L245.805 274.579ZM245.105 274.493L245.484 274.539L244.964 278.132L244.585 278.086L245.105 274.493ZM244.404 274.407L244.784 274.454L244.264 278.046L243.885 278L244.404 274.407ZM243.704 274.322L244.083 274.368L243.564 277.961L243.185 277.915L243.704 274.322ZM243.018 274.238L243.383 274.283L242.863 277.875L242.499 277.831L243.018 274.238ZM242.685 273.832L247.308 274.397L246.684 278.708L242.061 278.143L242.685 273.832Z" fill="white"/>
<path fill-rule="evenodd" clip-rule="evenodd" d="M245.314 279.944L245.679 279.988L245.159 283.581L244.794 283.537L245.314 279.944ZM244.613 279.858L244.993 279.905L244.473 283.497L244.094 283.451L244.613 279.858ZM243.913 279.773L244.292 279.819L243.773 283.412L243.393 283.365L243.913 279.773ZM243.212 279.687L243.592 279.733L243.072 283.326L242.693 283.28L243.212 279.687ZM242.512 279.601L242.892 279.648L242.372 283.241L241.993 283.194L242.512 279.601ZM241.827 279.518L242.191 279.562L241.672 283.155L241.307 283.11L241.827 279.518ZM241.493 279.111L246.116 279.676L245.492 283.987L240.87 283.422L241.493 279.111Z" fill="white"/>
<path fill-rule="evenodd" clip-rule="evenodd" d="M250.947 281.053L251.312 281.097L250.793 284.69L250.428 284.646L250.947 281.053ZM250.247 280.967L250.626 281.014L250.107 284.606L249.727 284.56L250.247 280.967ZM249.547 280.882L249.926 280.928L249.407 284.521L249.027 284.474L249.547 280.882ZM248.846 280.796L249.226 280.843L248.706 284.435L248.327 284.389L248.846 280.796ZM248.146 280.711L248.525 280.757L248.006 284.35L247.626 284.303L248.146 280.711ZM247.46 280.627L247.825 280.671L247.305 284.264L246.941 284.22L247.46 280.627ZM247.127 280.22L251.749 280.785L251.126 285.096L246.504 284.531L247.127 280.22Z" fill="white"/>
<path fill-rule="evenodd" clip-rule="evenodd" d="M252.139 275.773L252.504 275.818L251.985 279.411L251.62 279.366L252.139 275.773ZM251.439 275.688L251.818 275.734L251.299 279.327L250.919 279.28L251.439 275.688ZM250.739 275.602L251.118 275.649L250.599 279.241L250.219 279.195L250.739 275.602ZM250.038 275.517L250.418 275.563L249.898 279.156L249.519 279.109L250.038 275.517ZM249.338 275.431L249.717 275.477L249.198 279.07L248.818 279.024L249.338 275.431ZM248.652 275.347L249.017 275.392L248.497 278.984L248.133 278.94L248.652 275.347ZM248.319 274.941L252.941 275.506L252.318 279.817L247.695 279.252L248.319 274.941Z" fill="white"/>
<path fill-rule="evenodd" clip-rule="evenodd" d="M256.581 282.162L256.946 282.207L256.426 285.799L256.061 285.755L256.581 282.162ZM255.881 282.077L256.26 282.123L255.741 285.716L255.361 285.669L255.881 282.077ZM255.18 281.991L255.56 282.037L255.04 285.63L254.661 285.584L255.18 281.991ZM254.48 281.905L254.859 281.952L254.34 285.544L253.96 285.498L254.48 281.905ZM253.78 281.82L254.159 281.866L253.64 285.459L253.26 285.413L253.78 281.82ZM253.094 281.736L253.458 281.781L252.939 285.373L252.574 285.329L253.094 281.736ZM252.76 281.33L257.383 281.894L256.76 286.205L252.137 285.641L252.76 281.33Z" fill="white"/>
<path fill-rule="evenodd" clip-rule="evenodd" d="M257.773 276.883L258.138 276.927L257.618 280.52L257.253 280.475L257.773 276.883ZM257.073 276.797L257.452 276.843L256.933 280.436L256.553 280.39L257.073 276.797ZM256.372 276.711L256.752 276.758L256.232 280.35L255.853 280.304L256.372 276.711ZM255.672 276.626L256.051 276.672L255.532 280.265L255.152 280.219L255.672 276.626ZM254.972 276.54L255.351 276.587L254.831 280.179L254.452 280.133L254.972 276.54ZM254.286 276.456L254.65 276.501L254.131 280.094L253.766 280.049L254.286 276.456ZM253.952 276.05L258.575 276.615L257.951 280.926L253.329 280.361L253.952 276.05Z" fill="white"/>
<path fill-rule="evenodd" clip-rule="evenodd" d="M258.965 271.603L259.33 271.648L258.81 275.24L258.445 275.196L258.965 271.603ZM258.264 271.517L258.644 271.564L258.124 275.157L257.745 275.11L258.264 271.517ZM257.564 271.432L257.943 271.478L257.424 275.071L257.044 275.025L257.564 271.432ZM256.863 271.346L257.243 271.393L256.723 274.985L256.344 274.939L256.863 271.346ZM256.163 271.261L256.543 271.307L256.023 274.9L255.644 274.854L256.163 271.261ZM255.477 271.177L255.842 271.221L255.323 274.814L254.958 274.77L255.477 271.177ZM255.144 270.771L259.767 271.336L259.143 275.647L254.521 275.082L255.144 270.771Z" fill="white"/>
<path fill-rule="evenodd" clip-rule="evenodd" d="M262.215 283.272L262.579 283.316L262.06 286.909L261.695 286.864L262.215 283.272ZM261.514 283.186L261.894 283.232L261.374 286.825L260.995 286.779L261.514 283.186ZM260.814 283.1L261.193 283.147L260.674 286.739L260.294 286.693L260.814 283.1ZM260.114 283.015L260.493 283.061L259.973 286.654L259.594 286.608L260.114 283.015ZM259.413 282.929L259.792 282.976L259.273 286.568L258.894 286.522L259.413 282.929ZM258.727 282.845L259.092 282.89L258.573 286.483L258.208 286.438L258.727 282.845ZM258.394 282.439L263.017 283.004L262.393 287.315L257.771 286.75L258.394 282.439Z" fill="white"/>
<path fill-rule="evenodd" clip-rule="evenodd" d="M243.324 291.75C244.028 291.836 244.522 292.439 244.427 293.095C244.332 293.752 243.684 294.215 242.98 294.129C242.275 294.042 241.782 293.44 241.877 292.784C241.972 292.127 242.619 291.664 243.324 291.75Z" fill="white"/>
<path fill-rule="evenodd" clip-rule="evenodd" d="M243.275 292.088C243.392 292.102 243.5 292.136 243.597 292.186C243.477 292.232 243.386 292.335 243.367 292.464C243.339 292.656 243.484 292.832 243.69 292.857C243.831 292.874 243.964 292.816 244.043 292.716C244.073 292.822 244.082 292.935 244.065 293.051C243.997 293.522 243.533 293.853 243.029 293.791C242.524 293.73 242.17 293.298 242.238 292.828C242.306 292.357 242.771 292.026 243.275 292.088Z" fill="black"/>
<path d="M245.064 301.034C242.007 299.105 240.535 296.928 239.902 294.714C238.615 294.818 237.099 294.768 235.365 294.567C234.711 294.491 234.027 294.395 233.313 294.276C232.489 294.139 231.625 293.973 230.721 293.779C233.266 296.947 236.624 299.618 243.537 300.806C244.048 300.891 244.556 300.967 245.064 301.034Z" fill="white"/>
</g>
<g clip-path="url(#clip1)">
<path d="M211.452 227.667C211.537 225.459 208.842 222.963 204.638 221.047C205.785 216.87 205.48 213.369 203.6 211.989C203.166 211.666 202.653 211.469 202.087 211.386L202.03 212.901C202.343 212.947 202.593 213.044 202.8 213.191C203.707 213.856 204.032 215.931 203.619 218.48C203.52 219.108 203.372 219.762 203.195 220.427C201.872 219.906 200.423 219.442 198.895 219.056C198.023 217.665 197.113 216.385 196.19 215.247C198.49 213.512 200.619 212.689 202.037 212.895L202.094 211.381C200.22 211.107 197.715 212.081 195.146 214.029C192.753 211.372 190.349 209.697 188.475 209.424L188.417 210.939C189.828 211.144 191.878 212.57 194.022 214.938C193.029 215.797 192.032 216.792 191.077 217.917C189.531 217.855 188.063 217.894 186.714 218.033C186.583 217.33 186.492 216.655 186.435 216.011C186.213 213.37 186.686 211.41 187.626 211.008C187.835 210.915 188.103 210.9 188.417 210.945L188.475 209.431C187.902 209.347 187.379 209.394 186.92 209.587C184.962 210.408 184.402 213.775 185.226 218.226C180.937 218.912 178.097 220.595 178.013 222.796C177.928 225.003 180.623 227.499 184.826 229.416C183.68 233.593 183.985 237.093 185.865 238.473C186.298 238.796 186.812 238.994 187.384 239.077C189.259 239.35 191.763 238.376 194.333 236.429C196.726 239.086 199.129 240.761 201.004 241.034C201.576 241.117 202.099 241.07 202.559 240.878C204.516 240.057 205.076 236.689 204.252 232.239C208.528 231.557 211.368 229.867 211.452 227.667ZM202.751 221.844C202.465 222.683 202.117 223.541 201.728 224.393C201.469 223.809 201.197 223.222 200.897 222.632C200.605 222.043 200.291 221.465 199.977 220.9C200.939 221.184 201.866 221.496 202.751 221.844ZM199.353 228.623C198.786 229.462 198.208 230.252 197.611 230.978C196.592 230.918 195.561 230.816 194.525 230.665C193.496 230.515 192.468 230.318 191.463 230.089C190.928 229.198 190.409 228.255 189.912 227.268C189.428 226.303 188.992 225.331 188.597 224.358C189.055 223.509 189.566 222.669 190.112 221.854C190.678 221.014 191.257 220.224 191.853 219.498C192.872 219.558 193.903 219.66 194.939 219.811C195.969 219.961 196.996 220.159 198.002 220.387C198.536 221.278 199.056 222.221 199.553 223.208C200.037 224.174 200.472 225.145 200.867 226.118C200.403 226.966 199.898 227.807 199.353 228.623ZM201.588 228.06C201.921 229.024 202.2 229.98 202.426 230.901C201.524 230.988 200.577 231.034 199.597 231.035C199.951 230.561 200.305 230.073 200.64 229.568C200.974 229.07 201.288 228.563 201.588 228.06ZM194.4 234.301C193.791 233.556 193.185 232.737 192.588 231.851C193.201 231.968 193.827 232.079 194.461 232.172C195.101 232.265 195.736 232.344 196.357 232.4C195.714 233.106 195.052 233.74 194.4 234.301ZM189.482 229.561C188.519 229.278 187.592 228.965 186.707 228.618C186.993 227.778 187.341 226.921 187.73 226.069C187.989 226.653 188.261 227.239 188.561 227.829C188.86 228.419 189.167 228.997 189.482 229.561ZM195.058 216.161C195.667 216.905 196.273 217.724 196.87 218.61C196.258 218.494 195.631 218.382 194.997 218.29C194.357 218.196 193.722 218.118 193.101 218.061C193.744 217.356 194.406 216.722 195.058 216.161ZM189.861 219.427C189.508 219.901 189.153 220.389 188.819 220.893C188.484 221.391 188.17 221.892 187.87 222.394C187.537 221.431 187.258 220.475 187.033 219.554C187.934 219.474 188.881 219.427 189.861 219.427ZM183.368 227.032C180.995 225.655 179.485 224.083 179.526 223.016C179.566 221.95 181.179 220.826 183.631 220.158C184.226 219.992 184.876 219.862 185.545 219.747C185.883 221.135 186.341 222.595 186.921 224.107C186.24 225.428 185.683 226.734 185.25 228.003C184.584 227.694 183.952 227.369 183.368 227.032ZM186.665 237.272C185.758 236.607 185.433 234.531 185.846 231.982C185.945 231.355 186.093 230.7 186.27 230.036C187.593 230.557 189.042 231.02 190.569 231.407C191.442 232.797 192.352 234.078 193.275 235.216C190.975 236.95 188.846 237.774 187.428 237.567C187.122 237.516 186.865 237.417 186.665 237.272ZM203.03 234.451C203.252 237.093 202.779 239.052 201.839 239.455C201.63 239.547 201.362 239.563 201.048 239.517C199.637 239.312 197.587 237.886 195.443 235.518C196.436 234.659 197.433 233.663 198.388 232.539C199.934 232.6 201.403 232.561 202.751 232.423C202.882 233.132 202.979 233.809 203.03 234.451ZM205.827 230.303C205.232 230.469 204.582 230.6 203.913 230.714C203.575 229.326 203.117 227.866 202.537 226.355C203.218 225.033 203.775 223.728 204.208 222.459C204.874 222.768 205.506 223.092 206.096 223.431C208.47 224.808 209.98 226.38 209.939 227.446C209.892 228.512 208.279 229.636 205.827 230.303Z" fill="black"/>
<path d="M194.581 228.338C196.255 228.586 197.675 227.395 197.753 225.679C197.831 223.963 196.537 222.371 194.863 222.123C193.189 221.876 191.769 223.066 191.691 224.782C191.613 226.498 192.907 228.09 194.581 228.338Z" fill="black"/>
</g>
<g clip-path="url(#clip2)">
<path d="M192.595 258.077L198.795 260.686L197.433 269.297L191.274 266.479L192.595 258.077ZM199.12 269.528L205.871 268.465L207.216 260.074L200.473 260.915L199.12 269.528ZM200.268 256.489L194.053 257.347L199.788 259.599L206.035 258.984L200.268 256.489ZM207.574 268.705L213.732 271.524L215.094 262.913L208.894 260.303L207.574 268.705ZM216.773 263.142L215.419 271.754L222.17 270.691L223.515 262.3L216.773 263.142ZM216.567 258.715L210.352 259.573L216.087 261.826L222.335 261.21L216.567 258.715ZM164.896 275.412L171.055 278.23L172.417 269.619L166.217 267.01L164.896 275.412ZM172.742 278.461L179.492 277.398L180.838 269.007L174.095 269.849L172.742 278.461ZM173.889 265.422L167.675 266.28L173.409 268.532L179.657 267.917L173.889 265.422ZM181.196 277.639L187.354 280.457L188.716 271.846L182.516 269.236L181.196 277.639ZM189.041 280.687L195.792 279.625L197.137 271.234L190.395 272.075L189.041 280.687ZM190.189 267.649L183.974 268.507L189.709 270.759L195.957 270.143L190.189 267.649ZM171.117 288.799L177.276 291.617L178.638 283.006L172.438 280.396L171.117 288.799ZM178.963 291.847L185.713 290.785L187.059 282.394L180.316 283.235L178.963 291.847ZM180.11 278.808L173.895 279.666L179.63 281.919L185.878 281.303L180.11 278.808Z" fill="black"/>
</g>
<path d="M280.86 228.745L262.152 250.381L250.9 224.675L255.555 225.307L262.777 241.806L263.31 243.025L264.197 241.999L276.205 228.113L280.86 228.745ZM282.398 228.19L275.849 227.301L263.546 241.529L256.146 224.624L249.597 223.734L261.916 251.877L282.398 228.19Z" fill="black"/>
<path d="M276.319 226.946L270.271 226.124L265.541 231.588L262.694 225.095L256.646 224.273L256.631 224.271L264.031 241.176L276.334 226.948L276.319 226.946Z" fill="black"/>
<path d="M318.877 247.758L321.764 248.1L324.65 248.443L322.723 241.448L318.877 247.758Z" fill="black"/>
<path d="M324.038 231.17L307.215 234.548L306.707 254.773L319.242 263.535L333.873 258.154L339.27 238.537L324.038 231.17ZM330.381 257.11L326.645 256.645L325.331 251.669L321.079 251.139L316.827 250.61L314.112 255.085L310.376 254.62L323.508 234.746L330.381 257.11Z" fill="black"/>
<path d="M379.714 174.399L147.891 130.169L147.183 133.504L379.007 177.733L379.714 174.399Z" fill="#E0E0E0"/>
<path d="M389.428 183.106C378.432 172.366 365.248 163.79 350.65 157.884C336.053 151.977 320.338 148.858 304.43 148.712C288.521 148.565 272.741 151.393 258.018 157.029C243.295 162.665 229.926 170.996 218.699 181.53C173.428 223.961 172.466 293.21 216.505 336.737C235.852 355.86 261.818 367.968 289.808 370.916C317.797 373.864 346.003 367.463 369.432 352.845L455.428 436.842C456.493 437.882 457.956 438.483 459.496 438.515C461.035 438.546 462.526 438.005 463.639 437.01L485.182 417.752C486.294 416.757 486.939 415.389 486.973 413.951C487.007 412.512 486.428 411.12 485.364 410.08L399.39 326.09C415.981 304.959 424.076 279.044 422.254 252.896C420.432 226.748 408.81 202.038 389.428 183.106ZM362.185 317.793C349.988 328.694 334.608 335.973 317.987 338.707C301.366 341.442 284.253 339.511 268.81 333.157C253.367 326.804 240.289 316.314 231.229 303.013C222.17 289.713 217.535 274.2 217.911 258.436C218.288 242.672 223.659 227.365 233.345 214.45C243.031 201.535 256.597 191.593 272.328 185.88C288.059 180.168 305.248 178.942 321.722 182.357C338.196 185.772 353.214 193.676 364.878 205.068C372.623 212.632 378.697 221.548 382.753 231.307C386.809 241.066 388.768 251.477 388.518 261.944C388.268 272.412 385.814 282.732 381.296 292.314C376.777 301.897 370.283 310.555 362.185 317.793Z" fill="url(#paint7_linear)"/>
<path d="M247.982 234.699C238.386 234.678 238.331 248.614 247.942 248.635C257.553 248.656 257.593 234.72 247.982 234.699Z" fill="url(#paint8_linear)"/>
<path d="M307.255 193.178C281.381 192.579 257.801 204.565 245.228 222.711C241.124 228.632 252.709 233.899 256.79 228.007C267.199 212.984 286.923 203.471 308.228 204.017C330.552 204.587 350.835 216.479 361.544 232.944C365.605 239.189 376.316 233.546 372.294 227.336C359.272 207.397 333.98 193.829 307.255 193.178Z" fill="url(#paint9_linear)"/>
<path d="M398.838 178.908C387.843 168.168 374.658 159.592 360.061 153.686C345.464 147.779 329.748 144.66 313.84 144.514C297.932 144.367 282.152 147.195 267.429 152.831C252.706 158.467 239.337 166.798 228.109 177.332C182.839 219.763 181.877 289.012 225.915 332.539C245.263 351.661 271.23 363.767 299.22 366.714C327.209 369.661 355.414 363.259 378.842 348.64L464.831 432.644C465.896 433.684 467.359 434.285 468.899 434.317C470.438 434.349 471.929 433.807 473.042 432.813L494.584 413.554C495.697 412.559 496.342 411.192 496.376 409.753C496.41 408.314 495.831 406.922 494.767 405.882L408.77 321.885C425.363 300.758 433.462 274.846 431.646 248.7C429.83 222.553 418.214 197.843 398.838 178.908ZM371.596 313.538C359.399 324.439 344.018 331.717 327.398 334.452C310.777 337.187 293.664 335.255 278.221 328.902C262.778 322.548 249.7 312.058 240.64 298.758C231.58 285.458 226.946 269.945 227.322 254.181C227.699 238.417 233.07 223.109 242.756 210.195C252.442 197.28 266.008 187.338 281.739 181.625C297.47 175.913 314.659 174.687 331.133 178.102C347.606 181.517 362.624 189.421 374.288 200.812C382.033 208.377 388.107 217.293 392.164 227.052C396.22 236.811 398.179 247.221 397.929 257.689C397.679 268.157 395.225 278.476 390.706 288.059C386.188 297.642 379.694 306.299 371.596 313.538Z" fill="#1A3263"/>
<path d="M249.365 233.24C239.769 233.219 239.714 247.155 249.325 247.176C258.936 247.197 258.976 233.261 249.365 233.24Z" fill="#1A3263"/>
<path d="M316.665 188.98C290.791 188.381 267.211 200.367 254.638 218.513C250.535 224.435 262.119 229.701 266.2 223.809C276.609 208.786 296.333 199.273 317.638 199.819C339.962 200.389 360.245 212.282 370.954 228.746C375.015 234.991 385.727 229.348 381.704 223.138C368.659 203.142 343.398 189.574 316.665 188.98Z" fill="#1A3263"/>
<defs>
<linearGradient id="paint0_linear" x1="175.197" y1="459.003" x2="176.136" y2="27.8174" gradientUnits="userSpaceOnUse">
<stop stop-color="#808080" stop-opacity="0.25"/>
<stop offset="0.54" stop-color="#808080" stop-opacity="0.12"/>
<stop offset="1" stop-color="#808080" stop-opacity="0.1"/>
</linearGradient>
<linearGradient id="paint1_linear" x1="33256.6" y1="47351" x2="33297.3" y2="28780.3" gradientUnits="userSpaceOnUse">
<stop stop-color="#808080" stop-opacity="0.25"/>
<stop offset="0.54" stop-color="#808080" stop-opacity="0.12"/>
<stop offset="1" stop-color="#808080" stop-opacity="0.1"/>
</linearGradient>
<linearGradient id="paint2_linear" x1="30615.5" y1="26106.1" x2="30631.4" y2="18904.6" gradientUnits="userSpaceOnUse">
<stop stop-color="#808080" stop-opacity="0.25"/>
<stop offset="0.54" stop-color="#808080" stop-opacity="0.12"/>
<stop offset="1" stop-color="#808080" stop-opacity="0.1"/>
</linearGradient>
<linearGradient id="paint3_linear" x1="33188" y1="71318.8" x2="33228.6" y2="52748.1" gradientUnits="userSpaceOnUse">
<stop stop-color="#808080" stop-opacity="0.25"/>
<stop offset="0.54" stop-color="#808080" stop-opacity="0.12"/>
<stop offset="1" stop-color="#808080" stop-opacity="0.1"/>
</linearGradient>
<linearGradient id="paint4_linear" x1="30572.2" y1="41076.8" x2="30588.2" y2="33875.3" gradientUnits="userSpaceOnUse">
<stop stop-color="#808080" stop-opacity="0.25"/>
<stop offset="0.54" stop-color="#808080" stop-opacity="0.12"/>
<stop offset="1" stop-color="#808080" stop-opacity="0.1"/>
</linearGradient>
<linearGradient id="paint5_linear" x1="260933" y1="300701" x2="296847" y2="109447" gradientUnits="userSpaceOnUse">
<stop stop-color="#808080" stop-opacity="0.25"/>
<stop offset="0.54" stop-color="#808080" stop-opacity="0.12"/>
<stop offset="1" stop-color="#808080" stop-opacity="0.1"/>
</linearGradient>
<linearGradient id="paint6_linear" x1="58645.9" y1="126724" x2="64519.8" y2="95555" gradientUnits="userSpaceOnUse">
<stop stop-color="#808080" stop-opacity="0.25"/>
<stop offset="0.54" stop-color="#808080" stop-opacity="0.12"/>
<stop offset="1" stop-color="#808080" stop-opacity="0.1"/>
</linearGradient>
<linearGradient id="paint7_linear" x1="335.25" y1="438.245" x2="335.884" y2="148.781" gradientUnits="userSpaceOnUse">
<stop stop-color="#1A3263"/>
<stop offset="0.54" stop-color="#B3B3B3" stop-opacity="0.1"/>
<stop offset="1" stop-color="#B3B3B3" stop-opacity="0.05"/>
</linearGradient>
<linearGradient id="paint8_linear" x1="247.942" y1="248.628" x2="247.973" y2="234.699" gradientUnits="userSpaceOnUse">
<stop stop-color="#1A3263"/>
<stop offset="0.55" stop-opacity="0.09"/>
<stop offset="1" stop-opacity="0.02"/>
</linearGradient>
<linearGradient id="paint9_linear" x1="100030" y1="20955.3" x2="100036" y2="18431.1" gradientUnits="userSpaceOnUse">
<stop stop-color="#1A3263"/>
<stop offset="0.55" stop-opacity="0.09"/>
<stop offset="1" stop-opacity="0.02"/>
</linearGradient>
<clipPath id="clip0">
<rect width="56.7607" height="48.6559" fill="white" transform="matrix(0.981039 0.193151 -0.220215 0.9756 234.18 256.702)"/>
</clipPath>
<clipPath id="clip1">
<rect width="73.9053" height="42.6659" fill="white" transform="matrix(0.993096 0.11665 -0.334104 0.942764 165.13 200.886)"/>
</clipPath>
<clipPath id="clip2">
<rect width="58.2625" height="43.832" fill="white" transform="matrix(0.980739 0.194661 -0.221682 0.975269 169.581 247.625)"/>
</clipPath>
</defs>
</svg>
