<svg width="234" height="287" viewBox="0 0 234 287" fill="none" xmlns="http://www.w3.org/2000/svg">
<path d="M233.751 7.80615H19.5952V269.812H233.751V7.80615Z" fill="url(#paint0_linear)"/>
<path d="M231.014 11.157H22.332V266.468H231.014V11.157Z" fill="white"/>
<path d="M187.567 39.9489H103.41V44.1115H187.567V39.9489Z" fill="#C0BCCF"/>
<path d="M187.567 53.1306H103.41V57.2933H187.567V53.1306Z" fill="#C0BCCF"/>
<path d="M167.383 66.3125H123.594V70.4752H167.383V66.3125Z" fill="#1A3263"/>
<path opacity="0.5" d="M187.567 123.549H103.41V127.712H187.567V123.549Z" fill="#C0BCCF"/>
<path opacity="0.5" d="M187.567 136.731H103.41V140.894H187.567V136.731Z" fill="#C0BCCF"/>
<path opacity="0.5" d="M167.383 149.913H123.594V154.076H167.383V149.913Z" fill="#1A3263"/>
<path opacity="0.5" d="M187.567 207.15H103.41V211.312H187.567V207.15Z" fill="#C0BCCF"/>
<path opacity="0.5" d="M187.567 220.331H103.41V224.494H187.567V220.331Z" fill="#C0BCCF"/>
<path opacity="0.5" d="M167.383 233.513H123.594V237.676H167.383V233.513Z" fill="#1A3263"/>
<g opacity="0.5">
<path opacity="0.5" d="M73.7808 146.766L72.0155 145.962C72.0424 145.69 72.0539 145.416 72.0497 145.143C72.062 144.912 72.062 144.68 72.0497 144.449C71.8752 142.625 70.7292 141.036 69.9184 139.367C69.176 137.844 68.7047 136.2 68.5261 134.511C68.3105 132.43 68.5261 130.272 67.7734 128.315C67.1611 126.737 65.95 125.419 64.6535 124.253C63.1981 122.868 61.4976 121.775 59.6417 121.031C57.7464 120.337 55.5672 120.16 53.672 120.868C51.9615 121.506 50.6444 122.779 49.3718 124.017C48.4476 124.843 47.6314 125.785 46.9428 126.82C46.1663 128.111 45.8344 129.595 45.5744 131.059C45.1659 133.403 44.885 135.768 44.7328 138.143C44.5994 140.124 44.3907 142.371 42.7213 143.585C41.9071 144.179 40.761 144.512 40.3882 145.41C40.2825 145.68 40.2403 145.971 40.265 146.26C40.2547 146.501 40.2719 146.741 40.3163 146.978C40.3403 147.117 40.3676 147.252 40.4018 147.391C39.9227 148.598 39.5205 149.836 39.1976 151.096C38.9479 152.032 38.7187 152.951 38.5134 153.843H39.0676H39.3618L42.5502 153.919H42.5947L46.0157 153.999H46.0328L49.2212 154.075H49.2999L50.2202 154.141H50.5212L63.2714 154.44H63.3398L64.1882 154.46H64.4858L67.0379 154.519L70.801 154.606H70.8284L73.661 154.676H73.9621H74.5436L74.3931 151.665C75.0157 147.054 73.7808 146.766 73.7808 146.766ZM59.4569 146.399C59.4569 148.952 56.7612 152.077 56.7612 152.077L54.0483 148.331L54.1475 148.185L56.7612 151.793C56.7612 151.793 59.4569 148.671 59.4569 146.114C59.5198 145.984 59.5918 145.859 59.6725 145.74L59.734 145.934C59.6305 146.082 59.5379 146.237 59.4569 146.399V146.399ZM63.6032 156.417C63.6032 156.289 63.6032 156.157 63.5793 156.028C63.5553 155.9 63.5587 155.786 63.5416 155.661C63.5245 155.536 63.5108 155.414 63.4937 155.29C63.4766 155.165 63.4527 155.043 63.4287 154.918C63.4048 154.793 63.3808 154.672 63.3535 154.547C63.3535 154.506 63.3364 154.467 63.3261 154.422C63.2885 154.259 63.2474 154.096 63.203 153.933C63.1585 153.77 63.1311 153.67 63.0901 153.541C63.0901 153.482 63.0558 153.423 63.0353 153.368C63.0148 153.312 62.9772 153.18 62.9464 153.087L62.8848 152.906C62.8574 152.827 62.8301 152.743 62.7993 152.664C62.748 152.518 62.6932 152.376 62.6385 152.23C62.5837 152.084 62.5256 151.942 62.4674 151.8C62.3511 151.508 62.2245 151.22 62.098 150.929C61.6019 149.805 61.0443 148.699 60.5311 147.602C60.256 147.029 60.0116 146.441 59.799 145.84L59.734 145.927C59.6304 146.076 59.5377 146.232 59.4569 146.395C59.4569 148.948 56.7612 152.074 56.7612 152.074L54.0483 148.327L51.6741 151.796C51.332 151.97 50.9899 152.559 50.7231 153.399C50.6478 153.624 50.576 153.874 50.5075 154.134C50.4596 154.311 50.4152 154.481 50.3741 154.679C50.3502 154.773 50.3296 154.866 50.3091 154.963L50.2475 155.258V155.303C50.2065 155.505 50.1654 155.713 50.1278 155.924C50.0902 156.136 50.0457 156.379 50.0081 156.618C49.9807 156.768 49.9568 156.918 49.9362 157.066C49.8883 157.353 49.8473 157.645 49.8062 157.936C49.7823 158.106 49.7583 158.283 49.7378 158.439L49.6557 159.084C49.8302 159.615 50.0252 160.125 50.227 160.659C50.3554 160.94 50.4308 161.242 50.4494 161.551C54.6579 162.689 59.0868 162.689 63.2953 161.551C63.294 161.54 63.294 161.53 63.2953 161.52C63.2322 161.229 63.2047 160.932 63.2132 160.635C63.2823 159.801 63.3965 158.972 63.5553 158.151C63.6059 157.746 63.6276 157.338 63.6203 156.93V156.785C63.6101 156.653 63.6066 156.535 63.6032 156.42V156.417ZM63.6032 156.417C63.6032 156.289 63.6032 156.157 63.5793 156.028C63.5553 155.9 63.5587 155.786 63.5416 155.661C63.5245 155.536 63.5108 155.414 63.4937 155.29C63.4766 155.165 63.4527 155.043 63.4287 154.918C63.4048 154.793 63.3808 154.672 63.3535 154.547C63.3535 154.506 63.3364 154.467 63.3261 154.422C63.2885 154.259 63.2474 154.096 63.203 153.933C63.1585 153.77 63.1311 153.67 63.0901 153.541C63.0901 153.482 63.0558 153.423 63.0353 153.368C63.0148 153.312 62.9772 153.18 62.9464 153.087L62.8848 152.906C62.8574 152.827 62.8301 152.743 62.7993 152.664C62.748 152.518 62.6932 152.376 62.6385 152.23C62.5837 152.084 62.5256 151.942 62.4674 151.8C62.3511 151.508 62.2245 151.22 62.098 150.929C61.6019 149.805 61.0443 148.699 60.5311 147.602C60.256 147.029 60.0116 146.441 59.799 145.84L59.734 145.927C59.6304 146.076 59.5377 146.232 59.4569 146.395C59.4569 148.948 56.7612 152.074 56.7612 152.074L54.0483 148.327L51.6741 151.796C51.332 151.97 50.9899 152.559 50.7231 153.399C50.6478 153.624 50.576 153.874 50.5075 154.134C50.4596 154.311 50.4152 154.481 50.3741 154.679C50.3502 154.773 50.3296 154.866 50.3091 154.963L50.2475 155.258V155.303C50.2065 155.505 50.1654 155.713 50.1278 155.924C50.0902 156.136 50.0457 156.379 50.0081 156.618C49.9807 156.768 49.9568 156.918 49.9362 157.066C49.8883 157.353 49.8473 157.645 49.8062 157.936C49.7823 158.106 49.7583 158.283 49.7378 158.439L49.6557 159.084C49.8302 159.615 50.0252 160.125 50.227 160.659C50.3554 160.94 50.4308 161.242 50.4494 161.551C54.6579 162.689 59.0868 162.689 63.2953 161.551C63.294 161.54 63.294 161.53 63.2953 161.52C63.2322 161.229 63.2047 160.932 63.2132 160.635C63.2823 159.801 63.3965 158.972 63.5553 158.151C63.6059 157.746 63.6276 157.338 63.6203 156.93V156.785C63.6101 156.653 63.6066 156.535 63.6032 156.42V156.417ZM63.6032 156.417C63.6032 156.289 63.6032 156.157 63.5793 156.028C63.5553 155.9 63.5587 155.786 63.5416 155.661C63.5245 155.536 63.5108 155.414 63.4937 155.29C63.4766 155.165 63.4527 155.043 63.4287 154.918C63.4048 154.793 63.3808 154.672 63.3535 154.547C63.3535 154.506 63.3364 154.467 63.3261 154.422C63.2885 154.259 63.2474 154.096 63.203 153.933C63.1585 153.77 63.1311 153.67 63.0901 153.541C63.0901 153.482 63.0558 153.423 63.0353 153.368C63.0148 153.312 62.9772 153.18 62.9464 153.087L62.8848 152.906C62.8574 152.827 62.8301 152.743 62.7993 152.664C62.748 152.518 62.6932 152.376 62.6385 152.23C62.5837 152.084 62.5256 151.942 62.4674 151.8C62.3511 151.508 62.2245 151.22 62.098 150.929C61.6019 149.805 61.0443 148.699 60.5311 147.602C60.256 147.029 60.0116 146.441 59.799 145.84L59.734 145.927C59.6304 146.076 59.5377 146.232 59.4569 146.395C59.4569 148.948 56.7612 152.074 56.7612 152.074L54.0483 148.327L51.6741 151.796C51.332 151.97 50.9899 152.559 50.7231 153.399C50.6478 153.624 50.576 153.874 50.5075 154.134C50.4596 154.311 50.4152 154.481 50.3741 154.679C50.3502 154.773 50.3296 154.866 50.3091 154.963L50.2475 155.258V155.303C50.2065 155.505 50.1654 155.713 50.1278 155.924C50.0902 156.136 50.0457 156.379 50.0081 156.618C49.9807 156.768 49.9568 156.918 49.9362 157.066C49.8883 157.353 49.8473 157.645 49.8062 157.936C49.7823 158.106 49.7583 158.283 49.7378 158.439L49.6557 159.084C49.8302 159.615 50.0252 160.125 50.227 160.659C50.3554 160.94 50.4308 161.242 50.4494 161.551C54.6579 162.689 59.0868 162.689 63.2953 161.551C63.294 161.54 63.294 161.53 63.2953 161.52C63.2322 161.229 63.2047 160.932 63.2132 160.635C63.2823 159.801 63.3965 158.972 63.5553 158.151C63.6059 157.746 63.6276 157.338 63.6203 156.93V156.785C63.6101 156.653 63.6066 156.535 63.6032 156.42V156.417ZM63.6032 156.417C63.6032 156.289 63.6032 156.157 63.5793 156.028C63.5553 155.9 63.5587 155.786 63.5416 155.661C63.5245 155.536 63.5108 155.414 63.4937 155.29C63.4766 155.165 63.4527 155.043 63.4287 154.918C63.4048 154.793 63.3808 154.672 63.3535 154.547C63.3535 154.506 63.3364 154.467 63.3261 154.422C63.2885 154.259 63.2474 154.096 63.203 153.933C63.1585 153.77 63.1311 153.67 63.0901 153.541C63.0901 153.482 63.0558 153.423 63.0353 153.368C63.0148 153.312 62.9772 153.18 62.9464 153.087L62.8848 152.906C62.8574 152.827 62.8301 152.743 62.7993 152.664C62.748 152.518 62.6932 152.376 62.6385 152.23C62.5837 152.084 62.5256 151.942 62.4674 151.8C62.3511 151.508 62.2245 151.22 62.098 150.929C61.6019 149.805 61.0443 148.699 60.5311 147.602C60.256 147.029 60.0116 146.441 59.799 145.84L59.734 145.927C59.6304 146.076 59.5377 146.232 59.4569 146.395C59.4569 148.948 56.7612 152.074 56.7612 152.074L54.0483 148.327L51.6741 151.796C51.332 151.97 50.9899 152.559 50.7231 153.399C50.6478 153.624 50.576 153.874 50.5075 154.134C50.4596 154.311 50.4152 154.481 50.3741 154.679C50.3502 154.773 50.3296 154.866 50.3091 154.963L50.2475 155.258V155.303C50.2065 155.505 50.1654 155.713 50.1278 155.924C50.0902 156.136 50.0457 156.379 50.0081 156.618C49.9807 156.768 49.9568 156.918 49.9362 157.066C49.8883 157.353 49.8473 157.645 49.8062 157.936C49.7823 158.106 49.7583 158.283 49.7378 158.439L49.6557 159.084C49.8302 159.615 50.0252 160.125 50.227 160.659C50.3554 160.94 50.4308 161.242 50.4494 161.551C54.6579 162.689 59.0868 162.689 63.2953 161.551C63.294 161.54 63.294 161.53 63.2953 161.52C63.2322 161.229 63.2047 160.932 63.2132 160.635C63.2823 159.801 63.3965 158.972 63.5553 158.151C63.6059 157.746 63.6276 157.338 63.6203 156.93V156.785C63.6101 156.653 63.6066 156.535 63.6032 156.42V156.417Z" fill="url(#paint1_linear)"/>
<path opacity="0.5" d="M63.7263 132.221H47.9896V142.975H63.7263V132.221Z" fill="#493545"/>
<path opacity="0.5" d="M66.34 144.082L59.7545 153.489L52.8714 152.882C52.8714 152.882 43.8912 153.486 49.878 146.51C52.7551 143.155 53.6959 140.359 53.8977 138.365C54.1167 136.207 53.4701 134.979 53.4701 134.979L60.9519 134.07C60.6143 135.093 60.5715 136.191 60.8287 137.237C61.7661 141.178 66.34 144.082 66.34 144.082Z" fill="#C77485"/>
<path opacity="0.1" d="M60.8253 137.227C59.8495 137.976 58.7073 138.471 57.4988 138.668C56.2904 138.866 55.0526 138.759 53.8943 138.358C54.1132 136.2 53.4667 134.972 53.4667 134.972L60.9485 134.063C60.6115 135.085 60.5688 136.182 60.8253 137.227Z" fill="black"/>
<path opacity="0.5" d="M56.3131 138.462C60.4451 138.462 63.7948 135.065 63.7948 130.876C63.7948 126.686 60.4451 123.289 56.3131 123.289C52.181 123.289 48.8313 126.686 48.8313 130.876C48.8313 135.065 52.181 138.462 56.3131 138.462Z" fill="#C77485"/>
<path opacity="0.1" d="M66.0664 144.47L65.8919 143.776L65.7414 143.166L65.519 142.264L65.478 142.097L65.4438 141.959C65.4438 141.959 65.6216 141.414 64.4482 141.591L64.2293 141.629C64.0446 141.667 63.829 141.719 63.5827 141.789L63.3604 141.858L63.0661 141.952C62.1347 142.259 61.2851 142.779 60.5825 143.471C60.2671 143.777 59.9881 144.119 59.7512 144.491C59.7272 144.526 59.7101 144.557 59.6896 144.585C59.6086 144.713 59.5366 144.848 59.4741 144.987C59.4741 147.72 56.7783 151.057 56.7783 151.057L54.1475 147.204L54.0962 147.127L53.4702 146.205L53.2478 145.906L53.1726 145.802L51.8041 143.939L51.462 143.475L51.3491 143.318L51.1815 143.093L50.7881 142.562L49.2486 143.475L47.196 144.689L45.9987 152.58V152.799L46.0363 153.451L46.286 157.739V157.798L45.8481 159.574L45.9131 159.608C46.9464 160.173 48.0216 160.656 49.1289 161.051L49.4197 161.155C49.7618 161.27 50.0834 161.374 50.4186 161.475C50.4311 161.526 50.4402 161.578 50.446 161.631C50.446 161.582 50.446 161.53 50.446 161.482C54.644 162.698 59.094 162.698 63.2919 161.482L63.3706 161.457C63.5656 161.402 63.764 161.343 63.9556 161.277L64.2669 161.176C65.1111 160.89 65.9381 160.554 66.7437 160.17L67.0311 153.961L67.2364 149.483V149.226L66.0664 144.47Z" fill="black"/>
<path opacity="0.5" d="M63.6032 156.004C63.6032 155.865 63.6032 155.727 63.5792 155.588C63.5553 155.449 63.5587 155.328 63.5416 155.196C63.5245 155.064 63.5108 154.932 63.4937 154.8C63.4766 154.669 63.4527 154.537 63.4287 154.405C63.4048 154.273 63.3808 154.141 63.3535 154.009C63.3535 153.964 63.3364 153.923 63.3261 153.878C63.2885 153.704 63.2474 153.531 63.2029 153.354C63.1585 153.177 63.1311 153.073 63.09 152.934C63.09 152.872 63.0558 152.809 63.0353 152.75C63.0148 152.691 62.9771 152.549 62.9464 152.448L62.8848 152.254C62.8574 152.167 62.83 152.081 62.7992 151.994C62.7479 151.838 62.6932 151.685 62.6385 151.529C62.5837 151.373 62.5256 151.22 62.4674 151.068C62.3511 150.756 62.2245 150.447 62.0979 150.138C61.6019 148.938 61.0443 147.755 60.5311 146.583C60.2553 145.968 60.011 145.339 59.799 144.699L59.734 144.793C59.63 144.952 59.5374 145.119 59.4569 145.292C59.4569 148.022 56.7611 151.363 56.7611 151.363L54.0483 147.356L51.6741 151.057C51.332 151.241 50.9899 151.873 50.723 152.771C50.6478 153.014 50.5759 153.278 50.5075 153.559C50.4596 153.746 50.4151 153.944 50.3741 154.141C50.3501 154.242 50.3296 154.343 50.3091 154.447L50.2475 154.762V154.811C50.2065 155.026 50.1654 155.248 50.1278 155.473C50.0902 155.699 50.0457 155.959 50.008 156.205C49.9807 156.365 49.9567 156.524 49.9362 156.684C49.8883 156.993 49.8473 157.305 49.8062 157.614C49.7823 157.794 49.7583 157.961 49.7378 158.151L49.6557 158.845C49.8302 159.414 50.0251 159.976 50.227 160.528C50.3559 160.83 50.4312 161.153 50.4494 161.482C54.6473 162.698 59.0973 162.698 63.2953 161.482C63.2938 161.47 63.2938 161.458 63.2953 161.447C63.2321 161.135 63.2045 160.818 63.2132 160.5V160.5C63.2823 159.61 63.3964 158.724 63.5553 157.846C63.6058 157.413 63.6275 156.978 63.6203 156.542V156.386C63.61 156.254 63.6066 156.129 63.6032 156.004ZM63.6032 156.004C63.6032 155.865 63.6032 155.727 63.5792 155.588C63.5553 155.449 63.5587 155.328 63.5416 155.196C63.5245 155.064 63.5108 154.932 63.4937 154.8C63.4766 154.669 63.4527 154.537 63.4287 154.405C63.4048 154.273 63.3808 154.141 63.3535 154.009C63.3535 153.964 63.3364 153.923 63.3261 153.878C63.2885 153.704 63.2474 153.531 63.2029 153.354C63.1585 153.177 63.1311 153.073 63.09 152.934C63.09 152.872 63.0558 152.809 63.0353 152.75C63.0148 152.691 62.9771 152.549 62.9464 152.448L62.8848 152.254C62.8574 152.167 62.83 152.081 62.7992 151.994C62.7479 151.838 62.6932 151.685 62.6385 151.529C62.5837 151.373 62.5256 151.22 62.4674 151.068C62.3511 150.756 62.2245 150.447 62.0979 150.138C61.6019 148.938 61.0443 147.755 60.5311 146.583C60.2553 145.968 60.011 145.339 59.799 144.699L59.734 144.793C59.63 144.952 59.5374 145.119 59.4569 145.292C59.4569 148.022 56.7611 151.363 56.7611 151.363L54.0483 147.356L51.6741 151.057C51.332 151.241 50.9899 151.873 50.723 152.771C50.6478 153.014 50.5759 153.278 50.5075 153.559C50.4596 153.746 50.4151 153.944 50.3741 154.141C50.3501 154.242 50.3296 154.343 50.3091 154.447L50.2475 154.762V154.811C50.2065 155.026 50.1654 155.248 50.1278 155.473C50.0902 155.699 50.0457 155.959 50.008 156.205C49.9807 156.365 49.9567 156.524 49.9362 156.684C49.8883 156.993 49.8473 157.305 49.8062 157.614C49.7823 157.794 49.7583 157.961 49.7378 158.151L49.6557 158.845C49.8302 159.414 50.0251 159.976 50.227 160.528C50.3559 160.83 50.4312 161.153 50.4494 161.482C54.6473 162.698 59.0973 162.698 63.2953 161.482C63.2938 161.47 63.2938 161.458 63.2953 161.447C63.2321 161.135 63.2045 160.818 63.2132 160.5V160.5C63.2823 159.61 63.3964 158.724 63.5553 157.846C63.6058 157.413 63.6275 156.978 63.6203 156.542V156.386C63.61 156.254 63.6066 156.129 63.6032 156.004ZM63.6032 156.004C63.6032 155.865 63.6032 155.727 63.5792 155.588C63.5553 155.449 63.5587 155.328 63.5416 155.196C63.5245 155.064 63.5108 154.932 63.4937 154.8C63.4766 154.669 63.4527 154.537 63.4287 154.405C63.4048 154.273 63.3808 154.141 63.3535 154.009C63.3535 153.964 63.3364 153.923 63.3261 153.878C63.2885 153.704 63.2474 153.531 63.2029 153.354C63.1585 153.177 63.1311 153.073 63.09 152.934C63.09 152.872 63.0558 152.809 63.0353 152.75C63.0148 152.691 62.9771 152.549 62.9464 152.448L62.8848 152.254C62.8574 152.167 62.83 152.081 62.7992 151.994C62.7479 151.838 62.6932 151.685 62.6385 151.529C62.5837 151.373 62.5256 151.22 62.4674 151.068C62.3511 150.756 62.2245 150.447 62.0979 150.138C61.6019 148.938 61.0443 147.755 60.5311 146.583C60.2553 145.968 60.011 145.339 59.799 144.699L59.734 144.793C59.63 144.952 59.5374 145.119 59.4569 145.292C59.4569 148.022 56.7611 151.363 56.7611 151.363L54.0483 147.356L51.6741 151.057C51.332 151.241 50.9899 151.873 50.723 152.771C50.6478 153.014 50.5759 153.278 50.5075 153.559C50.4596 153.746 50.4151 153.944 50.3741 154.141C50.3501 154.242 50.3296 154.343 50.3091 154.447L50.2475 154.762V154.811C50.2065 155.026 50.1654 155.248 50.1278 155.473C50.0902 155.699 50.0457 155.959 50.008 156.205C49.9807 156.365 49.9567 156.524 49.9362 156.684C49.8883 156.993 49.8473 157.305 49.8062 157.614C49.7823 157.794 49.7583 157.961 49.7378 158.151L49.6557 158.845C49.8302 159.414 50.0251 159.976 50.227 160.528C50.3559 160.83 50.4312 161.153 50.4494 161.482C54.6473 162.698 59.0973 162.698 63.2953 161.482C63.2938 161.47 63.2938 161.458 63.2953 161.447C63.2321 161.135 63.2045 160.818 63.2132 160.5V160.5C63.2823 159.61 63.3964 158.724 63.5553 157.846C63.6058 157.413 63.6275 156.978 63.6203 156.542V156.386C63.61 156.254 63.6066 156.129 63.6032 156.004ZM67.2295 149.493L66.0082 144.55L65.7995 143.703L65.7413 143.471L65.4437 142.264C65.4444 142.253 65.4444 142.243 65.4437 142.233C65.4508 142.179 65.4425 142.125 65.4198 142.076C65.3753 141.986 65.2624 141.893 64.999 141.868C64.8987 141.861 64.7981 141.861 64.6979 141.868V141.868C64.4007 141.898 64.1065 141.954 63.8187 142.035C63.6785 142.073 63.5279 142.115 63.3671 142.167L63.0729 142.26H63.0456C62.2576 142.523 61.5261 142.935 60.8903 143.474C60.4703 143.83 60.1017 144.243 59.7956 144.702L59.7306 144.796C59.6266 144.956 59.534 145.123 59.4535 145.296C59.4535 148.026 56.7577 151.366 56.7577 151.366L54.0448 147.36L53.8909 147.134L53.8635 147.096L53.4701 146.51L53.1725 146.107L53.0938 146.003L51.6912 144.106L51.2465 143.492V143.471L51.0925 143.259L50.7983 142.864L49.772 143.471L47.2062 144.987L46.0226 152.795V152.879L46.0568 153.448L46.3099 157.794V158.04L45.9233 159.605C46.9566 160.17 48.0318 160.652 49.1391 161.048L49.4299 161.152C49.772 161.266 50.0936 161.37 50.4288 161.471C50.4413 161.522 50.4504 161.575 50.4562 161.627C50.4562 161.579 50.4562 161.527 50.4562 161.478C54.6542 162.694 59.1042 162.694 63.3021 161.478L63.3808 161.454C63.5758 161.398 63.7742 161.339 63.9658 161.273L64.2771 161.173C65.1213 160.886 65.9483 160.551 66.754 160.167L67.0379 153.964L67.2432 149.535L67.2295 149.493ZM50.4049 161.471C50.4173 161.522 50.4265 161.575 50.4322 161.627C50.4322 161.579 50.4322 161.527 50.4322 161.478L50.4049 161.471ZM63.6032 156.004C63.6032 155.865 63.6032 155.727 63.5792 155.588C63.5553 155.449 63.5587 155.328 63.5416 155.196C63.5245 155.064 63.5108 154.932 63.4937 154.8C63.4766 154.669 63.4527 154.537 63.4287 154.405C63.4048 154.273 63.3808 154.141 63.3535 154.009C63.3535 153.964 63.3364 153.923 63.3261 153.878C63.2885 153.704 63.2474 153.531 63.2029 153.354C63.1585 153.177 63.1311 153.073 63.09 152.934C63.09 152.872 63.0558 152.809 63.0353 152.75C63.0148 152.691 62.9771 152.549 62.9464 152.448L62.8848 152.254C62.8574 152.167 62.83 152.081 62.7992 151.994C62.7479 151.838 62.6932 151.685 62.6385 151.529C62.5837 151.373 62.5256 151.22 62.4674 151.068C62.3511 150.756 62.2245 150.447 62.0979 150.138C61.6019 148.938 61.0443 147.755 60.5311 146.583C60.2553 145.968 60.011 145.339 59.799 144.699L59.734 144.793C59.63 144.952 59.5374 145.119 59.4569 145.292C59.4569 148.022 56.7611 151.363 56.7611 151.363L54.0483 147.356L51.6741 151.057C51.332 151.241 50.9899 151.873 50.723 152.771C50.6478 153.014 50.5759 153.278 50.5075 153.559C50.4596 153.746 50.4151 153.944 50.3741 154.141C50.3501 154.242 50.3296 154.343 50.3091 154.447L50.2475 154.762V154.811C50.2065 155.026 50.1654 155.248 50.1278 155.473C50.0902 155.699 50.0457 155.959 50.008 156.205C49.9807 156.365 49.9567 156.524 49.9362 156.684C49.8883 156.993 49.8473 157.305 49.8062 157.614C49.7823 157.794 49.7583 157.961 49.7378 158.151L49.6557 158.845C49.8302 159.414 50.0251 159.976 50.227 160.528C50.3559 160.83 50.4312 161.153 50.4494 161.482C54.6473 162.698 59.0973 162.698 63.2953 161.482C63.2938 161.47 63.2938 161.458 63.2953 161.447C63.2321 161.135 63.2045 160.818 63.2132 160.5V160.5C63.2823 159.61 63.3964 158.724 63.5553 157.846C63.6058 157.413 63.6275 156.978 63.6203 156.542V156.386C63.61 156.254 63.6066 156.129 63.6032 156.004ZM63.6032 156.004C63.6032 155.865 63.6032 155.727 63.5792 155.588C63.5553 155.449 63.5587 155.328 63.5416 155.196C63.5245 155.064 63.5108 154.932 63.4937 154.8C63.4766 154.669 63.4527 154.537 63.4287 154.405C63.4048 154.273 63.3808 154.141 63.3535 154.009C63.3535 153.964 63.3364 153.923 63.3261 153.878C63.2885 153.704 63.2474 153.531 63.2029 153.354C63.1585 153.177 63.1311 153.073 63.09 152.934C63.09 152.872 63.0558 152.809 63.0353 152.75C63.0148 152.691 62.9771 152.549 62.9464 152.448L62.8848 152.254C62.8574 152.167 62.83 152.081 62.7992 151.994C62.7479 151.838 62.6932 151.685 62.6385 151.529C62.5837 151.373 62.5256 151.22 62.4674 151.068C62.3511 150.756 62.2245 150.447 62.0979 150.138C61.6019 148.938 61.0443 147.755 60.5311 146.583C60.2553 145.968 60.011 145.339 59.799 144.699L59.734 144.793C59.63 144.952 59.5374 145.119 59.4569 145.292C59.4569 148.022 56.7611 151.363 56.7611 151.363L54.0483 147.356L51.6741 151.057C51.332 151.241 50.9899 151.873 50.723 152.771C50.6478 153.014 50.5759 153.278 50.5075 153.559C50.4596 153.746 50.4151 153.944 50.3741 154.141C50.3501 154.242 50.3296 154.343 50.3091 154.447L50.2475 154.762V154.811C50.2065 155.026 50.1654 155.248 50.1278 155.473C50.0902 155.699 50.0457 155.959 50.008 156.205C49.9807 156.365 49.9567 156.524 49.9362 156.684C49.8883 156.993 49.8473 157.305 49.8062 157.614C49.7823 157.794 49.7583 157.961 49.7378 158.151L49.6557 158.845C49.8302 159.414 50.0251 159.976 50.227 160.528C50.3559 160.83 50.4312 161.153 50.4494 161.482C54.6473 162.698 59.0973 162.698 63.2953 161.482C63.2938 161.47 63.2938 161.458 63.2953 161.447C63.2321 161.135 63.2045 160.818 63.2132 160.5V160.5C63.2823 159.61 63.3964 158.724 63.5553 157.846C63.6058 157.413 63.6275 156.978 63.6203 156.542V156.386C63.61 156.254 63.6066 156.129 63.6032 156.004ZM63.6032 156.004C63.6032 155.865 63.6032 155.727 63.5792 155.588C63.5553 155.449 63.5587 155.328 63.5416 155.196C63.5245 155.064 63.5108 154.932 63.4937 154.8C63.4766 154.669 63.4527 154.537 63.4287 154.405C63.4048 154.273 63.3808 154.141 63.3535 154.009C63.3535 153.964 63.3364 153.923 63.3261 153.878C63.2885 153.704 63.2474 153.531 63.2029 153.354C63.1585 153.177 63.1311 153.073 63.09 152.934C63.09 152.872 63.0558 152.809 63.0353 152.75C63.0148 152.691 62.9771 152.549 62.9464 152.448L62.8848 152.254C62.8574 152.167 62.83 152.081 62.7992 151.994C62.7479 151.838 62.6932 151.685 62.6385 151.529C62.5837 151.373 62.5256 151.22 62.4674 151.068C62.3511 150.756 62.2245 150.447 62.0979 150.138C61.6019 148.938 61.0443 147.755 60.5311 146.583C60.2553 145.968 60.011 145.339 59.799 144.699L59.734 144.793C59.63 144.952 59.5374 145.119 59.4569 145.292C59.4569 148.022 56.7611 151.363 56.7611 151.363L54.0483 147.356L51.6741 151.057C51.332 151.241 50.9899 151.873 50.723 152.771C50.6478 153.014 50.5759 153.278 50.5075 153.559C50.4596 153.746 50.4151 153.944 50.3741 154.141C50.3501 154.242 50.3296 154.343 50.3091 154.447L50.2475 154.762V154.811C50.2065 155.026 50.1654 155.248 50.1278 155.473C50.0902 155.699 50.0457 155.959 50.008 156.205C49.9807 156.365 49.9567 156.524 49.9362 156.684C49.8883 156.993 49.8473 157.305 49.8062 157.614C49.7823 157.794 49.7583 157.961 49.7378 158.151L49.6557 158.845C49.8302 159.414 50.0251 159.976 50.227 160.528C50.3559 160.83 50.4312 161.153 50.4494 161.482C54.6473 162.698 59.0973 162.698 63.2953 161.482C63.2938 161.47 63.2938 161.458 63.2953 161.447C63.2321 161.135 63.2045 160.818 63.2132 160.5V160.5C63.2823 159.61 63.3964 158.724 63.5553 157.846C63.6058 157.413 63.6275 156.978 63.6203 156.542V156.386C63.61 156.254 63.6066 156.129 63.6032 156.004ZM63.6032 156.004C63.6032 155.865 63.6032 155.727 63.5792 155.588C63.5553 155.449 63.5587 155.328 63.5416 155.196C63.5245 155.064 63.5108 154.932 63.4937 154.8C63.4766 154.669 63.4527 154.537 63.4287 154.405C63.4048 154.273 63.3808 154.141 63.3535 154.009C63.3535 153.964 63.3364 153.923 63.3261 153.878C63.2885 153.704 63.2474 153.531 63.2029 153.354C63.1585 153.177 63.1311 153.073 63.09 152.934C63.09 152.872 63.0558 152.809 63.0353 152.75C63.0148 152.691 62.9771 152.549 62.9464 152.448L62.8848 152.254C62.8574 152.167 62.83 152.081 62.7992 151.994C62.7479 151.838 62.6932 151.685 62.6385 151.529C62.5837 151.373 62.5256 151.22 62.4674 151.068C62.3511 150.756 62.2245 150.447 62.0979 150.138C61.6019 148.938 61.0443 147.755 60.5311 146.583C60.2553 145.968 60.011 145.339 59.799 144.699L59.734 144.793C59.63 144.952 59.5374 145.119 59.4569 145.292C59.4569 148.022 56.7611 151.363 56.7611 151.363L54.0483 147.356L51.6741 151.057C51.332 151.241 50.9899 151.873 50.723 152.771C50.6478 153.014 50.5759 153.278 50.5075 153.559C50.4596 153.746 50.4151 153.944 50.3741 154.141C50.3501 154.242 50.3296 154.343 50.3091 154.447L50.2475 154.762V154.811C50.2065 155.026 50.1654 155.248 50.1278 155.473C50.0902 155.699 50.0457 155.959 50.008 156.205C49.9807 156.365 49.9567 156.524 49.9362 156.684C49.8883 156.993 49.8473 157.305 49.8062 157.614C49.7823 157.794 49.7583 157.961 49.7378 158.151L49.6557 158.845C49.8302 159.414 50.0251 159.976 50.227 160.528C50.3559 160.83 50.4312 161.153 50.4494 161.482C54.6473 162.698 59.0973 162.698 63.2953 161.482C63.2938 161.47 63.2938 161.458 63.2953 161.447C63.2321 161.135 63.2045 160.818 63.2132 160.5V160.5C63.2823 159.61 63.3964 158.724 63.5553 157.846C63.6058 157.413 63.6275 156.978 63.6203 156.542V156.386C63.61 156.254 63.6066 156.129 63.6032 156.004ZM63.6032 156.004C63.6032 155.865 63.6032 155.727 63.5792 155.588C63.5553 155.449 63.5587 155.328 63.5416 155.196C63.5245 155.064 63.5108 154.932 63.4937 154.8C63.4766 154.669 63.4527 154.537 63.4287 154.405C63.4048 154.273 63.3808 154.141 63.3535 154.009C63.3535 153.964 63.3364 153.923 63.3261 153.878C63.2885 153.704 63.2474 153.531 63.2029 153.354C63.1585 153.177 63.1311 153.073 63.09 152.934C63.09 152.872 63.0558 152.809 63.0353 152.75C63.0148 152.691 62.9771 152.549 62.9464 152.448L62.8848 152.254C62.8574 152.167 62.83 152.081 62.7992 151.994C62.7479 151.838 62.6932 151.685 62.6385 151.529C62.5837 151.373 62.5256 151.22 62.4674 151.068C62.3511 150.756 62.2245 150.447 62.0979 150.138C61.6019 148.938 61.0443 147.755 60.5311 146.583C60.2553 145.968 60.011 145.339 59.799 144.699L59.734 144.793C59.63 144.952 59.5374 145.119 59.4569 145.292C59.4569 148.022 56.7611 151.363 56.7611 151.363L54.0483 147.356L51.6741 151.057C51.332 151.241 50.9899 151.873 50.723 152.771C50.6478 153.014 50.5759 153.278 50.5075 153.559C50.4596 153.746 50.4151 153.944 50.3741 154.141C50.3501 154.242 50.3296 154.343 50.3091 154.447L50.2475 154.762V154.811C50.2065 155.026 50.1654 155.248 50.1278 155.473C50.0902 155.699 50.0457 155.959 50.008 156.205C49.9807 156.365 49.9567 156.524 49.9362 156.684C49.8883 156.993 49.8473 157.305 49.8062 157.614C49.7823 157.794 49.7583 157.961 49.7378 158.151L49.6557 158.845C49.8302 159.414 50.0251 159.976 50.227 160.528C50.3559 160.83 50.4312 161.153 50.4494 161.482C54.6473 162.698 59.0973 162.698 63.2953 161.482C63.2938 161.47 63.2938 161.458 63.2953 161.447C63.2321 161.135 63.2045 160.818 63.2132 160.5V160.5C63.2823 159.61 63.3964 158.724 63.5553 157.846C63.6058 157.413 63.6275 156.978 63.6203 156.542V156.386C63.61 156.254 63.6066 156.129 63.6032 156.004ZM63.6032 156.004C63.6032 155.865 63.6032 155.727 63.5792 155.588C63.5553 155.449 63.5587 155.328 63.5416 155.196C63.5245 155.064 63.5108 154.932 63.4937 154.8C63.4766 154.669 63.4527 154.537 63.4287 154.405C63.4048 154.273 63.3808 154.141 63.3535 154.009C63.3535 153.964 63.3364 153.923 63.3261 153.878C63.2885 153.704 63.2474 153.531 63.2029 153.354C63.1585 153.177 63.1311 153.073 63.09 152.934C63.09 152.872 63.0558 152.809 63.0353 152.75C63.0148 152.691 62.9771 152.549 62.9464 152.448L62.8848 152.254C62.8574 152.167 62.83 152.081 62.7992 151.994C62.7479 151.838 62.6932 151.685 62.6385 151.529C62.5837 151.373 62.5256 151.22 62.4674 151.068C62.3511 150.756 62.2245 150.447 62.0979 150.138C61.6019 148.938 61.0443 147.755 60.5311 146.583C60.2553 145.968 60.011 145.339 59.799 144.699L59.734 144.793C59.63 144.952 59.5374 145.119 59.4569 145.292C59.4569 148.022 56.7611 151.363 56.7611 151.363L54.0483 147.356L51.6741 151.057C51.332 151.241 50.9899 151.873 50.723 152.771C50.6478 153.014 50.5759 153.278 50.5075 153.559C50.4596 153.746 50.4151 153.944 50.3741 154.141C50.3501 154.242 50.3296 154.343 50.3091 154.447L50.2475 154.762V154.811C50.2065 155.026 50.1654 155.248 50.1278 155.473C50.0902 155.699 50.0457 155.959 50.008 156.205C49.9807 156.365 49.9567 156.524 49.9362 156.684C49.8883 156.993 49.8473 157.305 49.8062 157.614C49.7823 157.794 49.7583 157.961 49.7378 158.151L49.6557 158.845C49.8302 159.414 50.0251 159.976 50.227 160.528C50.3559 160.83 50.4312 161.153 50.4494 161.482C54.6473 162.698 59.0973 162.698 63.2953 161.482C63.2938 161.47 63.2938 161.458 63.2953 161.447C63.2321 161.135 63.2045 160.818 63.2132 160.5V160.5C63.2823 159.61 63.3964 158.724 63.5553 157.846C63.6058 157.413 63.6275 156.978 63.6203 156.542V156.386C63.61 156.254 63.6066 156.129 63.6032 156.004ZM63.6032 156.004C63.6032 155.865 63.6032 155.727 63.5792 155.588C63.5553 155.449 63.5587 155.328 63.5416 155.196C63.5245 155.064 63.5108 154.932 63.4937 154.8C63.4766 154.669 63.4527 154.537 63.4287 154.405C63.4048 154.273 63.3808 154.141 63.3535 154.009C63.3535 153.964 63.3364 153.923 63.3261 153.878C63.2885 153.704 63.2474 153.531 63.2029 153.354C63.1585 153.177 63.1311 153.073 63.09 152.934C63.09 152.872 63.0558 152.809 63.0353 152.75C63.0148 152.691 62.9771 152.549 62.9464 152.448L62.8848 152.254C62.8574 152.167 62.83 152.081 62.7992 151.994C62.7479 151.838 62.6932 151.685 62.6385 151.529C62.5837 151.373 62.5256 151.22 62.4674 151.068C62.3511 150.756 62.2245 150.447 62.0979 150.138C61.6019 148.938 61.0443 147.755 60.5311 146.583C60.2553 145.968 60.011 145.339 59.799 144.699L59.734 144.793C59.63 144.952 59.5374 145.119 59.4569 145.292C59.4569 148.022 56.7611 151.363 56.7611 151.363L54.0483 147.356L51.6741 151.057C51.332 151.241 50.9899 151.873 50.723 152.771C50.6478 153.014 50.5759 153.278 50.5075 153.559C50.4596 153.746 50.4151 153.944 50.3741 154.141C50.3501 154.242 50.3296 154.343 50.3091 154.447L50.2475 154.762V154.811C50.2065 155.026 50.1654 155.248 50.1278 155.473C50.0902 155.699 50.0457 155.959 50.008 156.205C49.9807 156.365 49.9567 156.524 49.9362 156.684C49.8883 156.993 49.8473 157.305 49.8062 157.614C49.7823 157.794 49.7583 157.961 49.7378 158.151L49.6557 158.845C49.8302 159.414 50.0251 159.976 50.227 160.528C50.3559 160.83 50.4312 161.153 50.4494 161.482C54.6473 162.698 59.0973 162.698 63.2953 161.482C63.2938 161.47 63.2938 161.458 63.2953 161.447C63.2321 161.135 63.2045 160.818 63.2132 160.5V160.5C63.2823 159.61 63.3964 158.724 63.5553 157.846C63.6058 157.413 63.6275 156.978 63.6203 156.542V156.386C63.61 156.254 63.6066 156.129 63.6032 156.004ZM63.6032 156.004C63.6032 155.865 63.6032 155.727 63.5792 155.588C63.5553 155.449 63.5587 155.328 63.5416 155.196C63.5245 155.064 63.5108 154.932 63.4937 154.8C63.4766 154.669 63.4527 154.537 63.4287 154.405C63.4048 154.273 63.3808 154.141 63.3535 154.009C63.3535 153.964 63.3364 153.923 63.3261 153.878C63.2885 153.704 63.2474 153.531 63.2029 153.354C63.1585 153.177 63.1311 153.073 63.09 152.934C63.09 152.872 63.0558 152.809 63.0353 152.75C63.0148 152.691 62.9771 152.549 62.9464 152.448L62.8848 152.254C62.8574 152.167 62.83 152.081 62.7992 151.994C62.7479 151.838 62.6932 151.685 62.6385 151.529C62.5837 151.373 62.5256 151.22 62.4674 151.068C62.3511 150.756 62.2245 150.447 62.0979 150.138C61.6019 148.938 61.0443 147.755 60.5311 146.583C60.2553 145.968 60.011 145.339 59.799 144.699L59.734 144.793C59.63 144.952 59.5374 145.119 59.4569 145.292C59.4569 148.022 56.7611 151.363 56.7611 151.363L54.0483 147.356L51.6741 151.057C51.332 151.241 50.9899 151.873 50.723 152.771C50.6478 153.014 50.5759 153.278 50.5075 153.559C50.4596 153.746 50.4151 153.944 50.3741 154.141C50.3501 154.242 50.3296 154.343 50.3091 154.447L50.2475 154.762V154.811C50.2065 155.026 50.1654 155.248 50.1278 155.473C50.0902 155.699 50.0457 155.959 50.008 156.205C49.9807 156.365 49.9567 156.524 49.9362 156.684C49.8883 156.993 49.8473 157.305 49.8062 157.614C49.7823 157.794 49.7583 157.961 49.7378 158.151L49.6557 158.845C49.8302 159.414 50.0251 159.976 50.227 160.528C50.3559 160.83 50.4312 161.153 50.4494 161.482C54.6473 162.698 59.0973 162.698 63.2953 161.482C63.2938 161.47 63.2938 161.458 63.2953 161.447C63.2321 161.135 63.2045 160.818 63.2132 160.5V160.5C63.2823 159.61 63.3964 158.724 63.5553 157.846C63.6058 157.413 63.6275 156.978 63.6203 156.542V156.386C63.61 156.254 63.6066 156.129 63.6032 156.004Z" fill="white"/>
<path opacity="0.1" d="M54.0962 147.124L53.867 147.093C53.5209 147.045 53.1782 146.976 52.8407 146.884L52.7141 146.85C51.8794 146.61 50.966 146.18 50.7607 145.424C50.6996 145.181 50.7067 144.925 50.7812 144.685C50.8961 144.272 51.052 143.873 51.2465 143.492V143.471C51.2722 143.417 51.3008 143.365 51.332 143.315C51.6143 142.755 52.0412 142.284 52.567 141.952L52.1565 142.018L48.6807 142.59L43.2926 143.471C43.2926 143.471 42.3347 143.277 41.0313 146.919C41.0313 146.964 41.0005 147.006 40.9868 147.054C40.6721 147.946 40.3403 149.059 39.9982 150.45C39.7621 151.415 39.5466 152.362 39.3482 153.281C39.29 153.559 39.2319 153.833 39.1771 154.103C39.7939 154.84 40.4579 155.536 41.1647 156.185L41.2776 156.292C42.6621 157.563 44.1919 158.662 45.8344 159.563L45.8994 159.598C46.9327 160.163 48.0079 160.646 49.1152 161.041L49.406 161.145C49.4676 160.503 49.536 159.792 49.6181 159.064C49.6181 158.991 49.6181 158.918 49.6455 158.845L49.7276 158.151C49.7481 157.975 49.772 157.805 49.796 157.614C49.837 157.305 49.8781 156.993 49.926 156.684C49.9465 156.525 49.9705 156.365 49.9978 156.205C50.0355 155.959 50.0765 155.713 50.1176 155.473C50.1586 155.234 50.1962 155.026 50.2373 154.811V154.762L50.2989 154.447C50.3194 154.343 50.3399 154.242 50.3639 154.141C50.4049 153.944 50.4494 153.746 50.4973 153.559C50.5657 153.278 50.6376 153.014 50.7128 152.771C50.9865 151.873 51.3046 151.241 51.6639 151.058L54.038 147.356L54.1373 147.2L54.1817 147.131L54.0962 147.124Z" fill="black"/>
<path opacity="0.1" d="M49.7754 122.554C49.4333 123.032 49.4607 123.691 49.3068 124.288C48.9407 125.644 47.4902 126.494 47.1584 127.861C46.9634 128.659 47.1891 129.505 47.0557 130.317C46.8128 131.812 45.4649 132.825 44.7123 134.133C44.3308 134.806 44.1046 135.559 44.0507 136.334C43.9968 137.109 44.1165 137.886 44.401 138.608C44.5771 138.971 44.7224 139.35 44.8355 139.738C44.9218 140.318 44.8857 140.909 44.7294 141.473C44.4729 142.708 44.2094 144.068 44.7979 145.181C45.2939 146.121 46.3236 146.673 47.3602 146.846C48.4069 146.966 49.4658 146.917 50.4973 146.701C51.6296 146.524 52.7894 146.319 53.7746 145.729L50.0696 136.662C49.6968 135.746 49.3136 134.799 49.317 133.807C49.3472 133.075 49.5035 132.354 49.7789 131.677C50.4961 129.715 51.5373 127.891 52.8578 126.283C53.3949 126.914 53.3538 127.875 53.802 128.576C54.198 129.094 54.7254 129.493 55.3278 129.731C57.0832 130.599 58.8868 131.363 60.7295 132.02C60.8452 132.035 60.9554 132.078 61.0505 132.147C61.1456 132.215 61.2226 132.306 61.2748 132.412C61.3269 132.517 61.3524 132.634 61.3492 132.752C61.346 132.871 61.3141 132.986 61.2564 133.089L59.8606 138.93C59.5527 140.217 59.2825 141.705 60.0727 142.746C60.863 143.787 62.6453 144.279 62.6556 145.622C62.641 145.834 62.641 146.047 62.6556 146.26C62.748 146.888 63.4835 147.19 64.1095 147.221C65.1372 147.241 66.1387 146.891 66.9352 146.232C67.7316 145.573 68.2712 144.649 68.4576 143.624C68.7997 141.327 67.3013 139.211 66.6753 136.974C65.6216 133.21 67.0174 128.794 64.9477 125.488C63.2714 122.807 60.2164 122.078 57.3154 121.745C55.2799 121.502 51.2088 120.635 49.7754 122.554Z" fill="black"/>
<path opacity="0.5" d="M49.7754 122.207C49.4333 122.685 49.4607 123.344 49.3068 123.941C48.9407 125.297 47.4902 126.147 47.1584 127.514C46.9634 128.312 47.1891 129.158 47.0557 129.97C46.8128 131.465 45.4649 132.478 44.7123 133.786C44.3308 134.46 44.1046 135.212 44.0507 135.987C43.9968 136.762 44.1165 137.539 44.401 138.261C44.5771 138.625 44.7224 139.003 44.8355 139.392C44.9218 139.971 44.8857 140.562 44.7294 141.126C44.4729 142.361 44.2094 143.721 44.7979 144.834C45.2939 145.774 46.3236 146.326 47.3602 146.499C48.4069 146.619 49.4658 146.57 50.4973 146.354C51.6296 146.177 52.7894 145.972 53.7746 145.382L50.0696 136.315C49.6968 135.399 49.3136 134.452 49.317 133.46C49.3472 132.728 49.5035 132.007 49.7789 131.33C50.4961 129.368 51.5373 127.544 52.8578 125.936C53.3949 126.567 53.3538 127.528 53.802 128.229C54.198 128.747 54.7254 129.146 55.3278 129.384C57.0832 130.252 58.8868 131.017 60.7295 131.673C60.8452 131.688 60.9554 131.731 61.0505 131.8C61.1456 131.868 61.2226 131.959 61.2748 132.065C61.3269 132.17 61.3524 132.287 61.3492 132.405C61.346 132.524 61.3141 132.639 61.2564 132.742L59.8606 138.583C59.5527 139.87 59.2825 141.358 60.0727 142.399C60.863 143.44 62.6453 143.932 62.6556 145.275C62.641 145.487 62.641 145.701 62.6556 145.913C62.748 146.541 63.4835 146.843 64.1095 146.874C65.1372 146.895 66.1387 146.544 66.9352 145.885C67.7316 145.226 68.2712 144.302 68.4576 143.277C68.7997 140.98 67.3013 138.864 66.6753 136.627C65.6216 132.863 67.0174 128.447 64.9477 125.141C63.2714 122.46 60.2164 121.731 57.3154 121.398C55.2799 121.156 51.2088 120.288 49.7754 122.207Z" fill="#493545"/>
</g>
<g opacity="0.5">
<path opacity="0.5" d="M47.6715 215.121C47.7023 216.283 46.9223 217.275 46.3031 218.243C45.6839 219.211 45.2254 220.533 45.8618 221.5C46.0704 221.82 46.3852 222.066 46.5733 222.399C47.2336 223.561 46.1354 224.896 45.7352 226.173C45.2733 227.647 45.8104 229.295 46.782 230.492C47.7536 231.689 49.0946 232.497 50.4494 233.208C53.2978 234.747 56.355 235.851 59.5219 236.483C61.1777 236.791 62.9429 236.93 64.4961 236.257C65.5737 235.756 66.454 234.902 66.9956 233.832C67.5372 232.763 67.7087 231.54 67.4826 230.36C67.0892 228.535 65.7721 227.068 65.0879 225.344C64.9282 225.005 64.8508 224.633 64.8621 224.258C64.9203 223.603 65.4163 223.089 65.8029 222.558C66.7724 221.113 67.1682 219.35 66.9113 217.622C66.6412 215.894 65.9886 214.25 65.0024 212.814C64.6499 212.219 64.1849 211.7 63.634 211.288C62.8882 210.778 61.9645 210.632 61.075 210.504C57.3598 209.977 53.5112 209.401 49.7651 209.207C48.5815 209.144 47.7125 209.38 47.1275 210.504C46.2346 212.179 47.627 213.439 47.6715 215.121Z" fill="#444176"/>
<path opacity="0.5" d="M66.8053 226.919L59.7545 237.086L52.8714 236.479C52.8714 236.479 52.6456 238.907 49.878 230.107C48.3317 225.184 51.4756 226.895 52.0948 225.531C52.7141 224.168 53.8054 222.964 53.8977 221.958C54.1167 219.801 53.4701 218.573 53.4701 218.573L60.9519 217.664C60.6143 218.686 60.5715 219.785 60.8287 220.831C61.7661 224.778 66.8053 226.919 66.8053 226.919Z" fill="#C77485"/>
<path opacity="0.5" d="M56.2001 218.25C61.1125 218.25 65.0948 215.066 65.0948 211.139C65.0948 207.211 61.1125 204.028 56.2001 204.028C51.2877 204.028 47.3054 207.211 47.3054 211.139C47.3054 215.066 51.2877 218.25 56.2001 218.25Z" fill="#444176"/>
<path opacity="0.1" d="M60.8253 220.827C59.8495 221.577 58.7073 222.072 57.4988 222.269C56.2904 222.466 55.0526 222.359 53.8943 221.958C54.1132 219.801 53.4667 218.573 53.4667 218.573L60.9485 217.664C60.6115 218.685 60.5688 219.782 60.8253 220.827V220.827Z" fill="black"/>
<path opacity="0.5" d="M56.3131 222.062C60.4451 222.062 63.7948 218.666 63.7948 214.476C63.7948 210.286 60.4451 206.889 56.3131 206.889C52.181 206.889 48.8313 210.286 48.8313 214.476C48.8313 218.666 52.181 222.062 56.3131 222.062Z" fill="#C77485"/>
<path opacity="0.1" d="M66.0664 228.07L65.8919 227.377L65.7414 226.766L65.519 225.864L65.478 225.698L65.4437 225.559C65.4437 225.559 65.6216 225.014 64.4482 225.191L64.2293 225.229C64.0446 225.268 63.829 225.32 63.5827 225.389L63.3603 225.458L63.0661 225.552C62.1347 225.86 61.2851 226.379 60.5825 227.071C60.2671 227.377 59.9881 227.72 59.7512 228.091C59.7272 228.126 59.7101 228.157 59.6896 228.185C59.6086 228.314 59.5366 228.448 59.4741 228.587C59.4741 231.321 56.7783 234.658 56.7783 234.658L54.1475 230.804L54.0962 230.728L53.4702 229.805L53.2478 229.507L53.1725 229.402L51.8041 227.54L51.462 227.075L51.3491 226.919L51.1815 226.693L50.7881 226.163L49.2486 227.075L47.196 228.289L45.9987 236.181V236.399L46.0363 237.051L46.286 241.339V241.398L45.8481 243.174L45.9131 243.209C46.9464 243.774 48.0216 244.256 49.1289 244.652L49.4197 244.756C49.7618 244.87 50.0834 244.974 50.4186 245.075C50.4311 245.126 50.4402 245.178 50.446 245.231C50.446 245.182 50.446 245.13 50.446 245.082C54.6439 246.298 59.094 246.298 63.2919 245.082L63.3706 245.058C63.5656 245.002 63.764 244.943 63.9556 244.877L64.2669 244.777C65.1111 244.49 65.9381 244.154 66.7437 243.771L67.0311 237.561L67.2364 233.083V232.826L66.0664 228.07Z" fill="black"/>
<path opacity="0.5" d="M63.6032 239.605C63.6032 239.466 63.6032 239.327 63.5792 239.188C63.5553 239.049 63.5587 238.928 63.5416 238.796C63.5245 238.664 63.5108 238.533 63.4937 238.401C63.4766 238.269 63.4527 238.137 63.4287 238.005C63.4048 237.874 63.3808 237.742 63.3535 237.61C63.3535 237.565 63.3363 237.523 63.3261 237.478C63.2885 237.305 63.2474 237.131 63.2029 236.954C63.1585 236.777 63.1311 236.673 63.09 236.535C63.09 236.472 63.0558 236.41 63.0353 236.351C63.0148 236.292 62.9771 236.149 62.9464 236.049L62.8848 235.855C62.8574 235.768 62.83 235.681 62.7992 235.594C62.7479 235.438 62.6932 235.286 62.6385 235.13C62.5837 234.974 62.5256 234.821 62.4674 234.668C62.3511 234.356 62.2245 234.047 62.0979 233.739C61.6019 232.538 61.0443 231.355 60.5311 230.183C60.2553 229.568 60.011 228.94 59.799 228.299L59.734 228.393C59.63 228.553 59.5374 228.72 59.4569 228.893C59.4569 231.623 56.7611 234.963 56.7611 234.963L54.0483 230.957L51.6741 234.658C51.332 234.842 50.9899 235.473 50.723 236.372C50.6478 236.614 50.5759 236.878 50.5075 237.159C50.4596 237.346 50.4151 237.544 50.3741 237.742C50.3501 237.842 50.3296 237.943 50.3091 238.047L50.2475 238.363V238.411C50.2065 238.626 50.1654 238.848 50.1278 239.074C50.0901 239.299 50.0457 239.559 50.008 239.806C49.9807 239.965 49.9567 240.125 49.9362 240.284C49.8883 240.593 49.8473 240.905 49.8062 241.214C49.7823 241.394 49.7583 241.561 49.7378 241.752L49.6557 242.446C49.8301 243.014 50.0251 243.576 50.227 244.128C50.3559 244.43 50.4312 244.753 50.4494 245.082C54.6473 246.298 59.0973 246.298 63.2953 245.082C63.2938 245.07 63.2938 245.059 63.2953 245.047C63.2321 244.736 63.2045 244.418 63.2132 244.1V244.1C63.2823 243.21 63.3964 242.325 63.5553 241.446C63.6058 241.014 63.6275 240.578 63.6203 240.142V239.986C63.61 239.854 63.6066 239.729 63.6032 239.605ZM63.6032 239.605C63.6032 239.466 63.6032 239.327 63.5792 239.188C63.5553 239.049 63.5587 238.928 63.5416 238.796C63.5245 238.664 63.5108 238.533 63.4937 238.401C63.4766 238.269 63.4527 238.137 63.4287 238.005C63.4048 237.874 63.3808 237.742 63.3535 237.61C63.3535 237.565 63.3363 237.523 63.3261 237.478C63.2885 237.305 63.2474 237.131 63.2029 236.954C63.1585 236.777 63.1311 236.673 63.09 236.535C63.09 236.472 63.0558 236.41 63.0353 236.351C63.0148 236.292 62.9771 236.149 62.9464 236.049L62.8848 235.855C62.8574 235.768 62.83 235.681 62.7992 235.594C62.7479 235.438 62.6932 235.286 62.6385 235.13C62.5837 234.974 62.5256 234.821 62.4674 234.668C62.3511 234.356 62.2245 234.047 62.0979 233.739C61.6019 232.538 61.0443 231.355 60.5311 230.183C60.2553 229.568 60.011 228.94 59.799 228.299L59.734 228.393C59.63 228.553 59.5374 228.72 59.4569 228.893C59.4569 231.623 56.7611 234.963 56.7611 234.963L54.0483 230.957L51.6741 234.658C51.332 234.842 50.9899 235.473 50.723 236.372C50.6478 236.614 50.5759 236.878 50.5075 237.159C50.4596 237.346 50.4151 237.544 50.3741 237.742C50.3501 237.842 50.3296 237.943 50.3091 238.047L50.2475 238.363V238.411C50.2065 238.626 50.1654 238.848 50.1278 239.074C50.0901 239.299 50.0457 239.559 50.008 239.806C49.9807 239.965 49.9567 240.125 49.9362 240.284C49.8883 240.593 49.8473 240.905 49.8062 241.214C49.7823 241.394 49.7583 241.561 49.7378 241.752L49.6557 242.446C49.8301 243.014 50.0251 243.576 50.227 244.128C50.3559 244.43 50.4312 244.753 50.4494 245.082C54.6473 246.298 59.0973 246.298 63.2953 245.082C63.2938 245.07 63.2938 245.059 63.2953 245.047C63.2321 244.736 63.2045 244.418 63.2132 244.1V244.1C63.2823 243.21 63.3964 242.325 63.5553 241.446C63.6058 241.014 63.6275 240.578 63.6203 240.142V239.986C63.61 239.854 63.6066 239.729 63.6032 239.605ZM63.6032 239.605C63.6032 239.466 63.6032 239.327 63.5792 239.188C63.5553 239.049 63.5587 238.928 63.5416 238.796C63.5245 238.664 63.5108 238.533 63.4937 238.401C63.4766 238.269 63.4527 238.137 63.4287 238.005C63.4048 237.874 63.3808 237.742 63.3535 237.61C63.3535 237.565 63.3363 237.523 63.3261 237.478C63.2885 237.305 63.2474 237.131 63.2029 236.954C63.1585 236.777 63.1311 236.673 63.09 236.535C63.09 236.472 63.0558 236.41 63.0353 236.351C63.0148 236.292 62.9771 236.149 62.9464 236.049L62.8848 235.855C62.8574 235.768 62.83 235.681 62.7992 235.594C62.7479 235.438 62.6932 235.286 62.6385 235.13C62.5837 234.974 62.5256 234.821 62.4674 234.668C62.3511 234.356 62.2245 234.047 62.0979 233.739C61.6019 232.538 61.0443 231.355 60.5311 230.183C60.2553 229.568 60.011 228.94 59.799 228.299L59.734 228.393C59.63 228.553 59.5374 228.72 59.4569 228.893C59.4569 231.623 56.7611 234.963 56.7611 234.963L54.0483 230.957L51.6741 234.658C51.332 234.842 50.9899 235.473 50.723 236.372C50.6478 236.614 50.5759 236.878 50.5075 237.159C50.4596 237.346 50.4151 237.544 50.3741 237.742C50.3501 237.842 50.3296 237.943 50.3091 238.047L50.2475 238.363V238.411C50.2065 238.626 50.1654 238.848 50.1278 239.074C50.0901 239.299 50.0457 239.559 50.008 239.806C49.9807 239.965 49.9567 240.125 49.9362 240.284C49.8883 240.593 49.8473 240.905 49.8062 241.214C49.7823 241.394 49.7583 241.561 49.7378 241.752L49.6557 242.446C49.8301 243.014 50.0251 243.576 50.227 244.128C50.3559 244.43 50.4312 244.753 50.4494 245.082C54.6473 246.298 59.0973 246.298 63.2953 245.082C63.2938 245.07 63.2938 245.059 63.2953 245.047C63.2321 244.736 63.2045 244.418 63.2132 244.1V244.1C63.2823 243.21 63.3964 242.325 63.5553 241.446C63.6058 241.014 63.6275 240.578 63.6203 240.142V239.986C63.61 239.854 63.6066 239.729 63.6032 239.605ZM67.2295 233.093L66.0082 228.15L65.7995 227.304L65.7413 227.071L65.4437 225.864C65.4444 225.854 65.4444 225.843 65.4437 225.833V225.833C65.4508 225.78 65.4425 225.725 65.4197 225.677C65.3753 225.587 65.2624 225.493 64.999 225.469C64.8987 225.462 64.7981 225.462 64.6979 225.469V225.469C64.4007 225.499 64.1065 225.554 63.8187 225.635C63.6785 225.673 63.5279 225.715 63.3671 225.767L63.0729 225.861H63.0456C62.2576 226.123 61.5261 226.535 60.8903 227.075C60.4703 227.43 60.1017 227.843 59.7956 228.303L59.7306 228.397C59.6266 228.556 59.534 228.723 59.4535 228.896C59.4535 231.626 56.7577 234.967 56.7577 234.967L54.0448 230.96L53.8909 230.735L53.8635 230.696L53.4701 230.11L53.1725 229.708L53.0938 229.604L51.6912 227.706L51.2465 227.092V227.071L51.0925 226.86L50.7983 226.464L49.772 227.071L47.2062 228.587L46.0226 236.396V236.479L46.0568 237.048L46.3099 241.394V241.641L45.9233 243.205C46.9566 243.77 48.0318 244.253 49.1391 244.648L49.4299 244.752C49.772 244.867 50.0936 244.971 50.4288 245.071C50.4413 245.123 50.4504 245.175 50.4562 245.228C50.4562 245.179 50.4562 245.127 50.4562 245.078C54.6542 246.295 59.1042 246.295 63.3021 245.078L63.3808 245.054C63.5758 244.999 63.7742 244.94 63.9658 244.874L64.2771 244.773C65.1213 244.487 65.9483 244.151 66.7539 243.767L67.0379 237.565L67.2432 233.135L67.2295 233.093ZM50.4049 245.071C50.4173 245.123 50.4264 245.175 50.4322 245.228C50.4322 245.179 50.4322 245.127 50.4322 245.078L50.4049 245.071ZM63.6032 239.605C63.6032 239.466 63.6032 239.327 63.5792 239.188C63.5553 239.049 63.5587 238.928 63.5416 238.796C63.5245 238.664 63.5108 238.533 63.4937 238.401C63.4766 238.269 63.4527 238.137 63.4287 238.005C63.4048 237.874 63.3808 237.742 63.3535 237.61C63.3535 237.565 63.3363 237.523 63.3261 237.478C63.2885 237.305 63.2474 237.131 63.2029 236.954C63.1585 236.777 63.1311 236.673 63.09 236.535C63.09 236.472 63.0558 236.41 63.0353 236.351C63.0148 236.292 62.9771 236.149 62.9464 236.049L62.8848 235.855C62.8574 235.768 62.83 235.681 62.7992 235.594C62.7479 235.438 62.6932 235.286 62.6385 235.13C62.5837 234.974 62.5256 234.821 62.4674 234.668C62.3511 234.356 62.2245 234.047 62.0979 233.739C61.6019 232.538 61.0443 231.355 60.5311 230.183C60.2553 229.568 60.011 228.94 59.799 228.299L59.734 228.393C59.63 228.553 59.5374 228.72 59.4569 228.893C59.4569 231.623 56.7611 234.963 56.7611 234.963L54.0483 230.957L51.6741 234.658C51.332 234.842 50.9899 235.473 50.723 236.372C50.6478 236.614 50.5759 236.878 50.5075 237.159C50.4596 237.346 50.4151 237.544 50.3741 237.742C50.3501 237.842 50.3296 237.943 50.3091 238.047L50.2475 238.363V238.411C50.2065 238.626 50.1654 238.848 50.1278 239.074C50.0901 239.299 50.0457 239.559 50.008 239.806C49.9807 239.965 49.9567 240.125 49.9362 240.284C49.8883 240.593 49.8473 240.905 49.8062 241.214C49.7823 241.394 49.7583 241.561 49.7378 241.752L49.6557 242.446C49.8301 243.014 50.0251 243.576 50.227 244.128C50.3559 244.43 50.4312 244.753 50.4494 245.082C54.6473 246.298 59.0973 246.298 63.2953 245.082C63.2938 245.07 63.2938 245.059 63.2953 245.047C63.2321 244.736 63.2045 244.418 63.2132 244.1V244.1C63.2823 243.21 63.3964 242.325 63.5553 241.446C63.6058 241.014 63.6275 240.578 63.6203 240.142V239.986C63.61 239.854 63.6066 239.729 63.6032 239.605ZM63.6032 239.605C63.6032 239.466 63.6032 239.327 63.5792 239.188C63.5553 239.049 63.5587 238.928 63.5416 238.796C63.5245 238.664 63.5108 238.533 63.4937 238.401C63.4766 238.269 63.4527 238.137 63.4287 238.005C63.4048 237.874 63.3808 237.742 63.3535 237.61C63.3535 237.565 63.3363 237.523 63.3261 237.478C63.2885 237.305 63.2474 237.131 63.2029 236.954C63.1585 236.777 63.1311 236.673 63.09 236.535C63.09 236.472 63.0558 236.41 63.0353 236.351C63.0148 236.292 62.9771 236.149 62.9464 236.049L62.8848 235.855C62.8574 235.768 62.83 235.681 62.7992 235.594C62.7479 235.438 62.6932 235.286 62.6385 235.13C62.5837 234.974 62.5256 234.821 62.4674 234.668C62.3511 234.356 62.2245 234.047 62.0979 233.739C61.6019 232.538 61.0443 231.355 60.5311 230.183C60.2553 229.568 60.011 228.94 59.799 228.299L59.734 228.393C59.63 228.553 59.5374 228.72 59.4569 228.893C59.4569 231.623 56.7611 234.963 56.7611 234.963L54.0483 230.957L51.6741 234.658C51.332 234.842 50.9899 235.473 50.723 236.372C50.6478 236.614 50.5759 236.878 50.5075 237.159C50.4596 237.346 50.4151 237.544 50.3741 237.742C50.3501 237.842 50.3296 237.943 50.3091 238.047L50.2475 238.363V238.411C50.2065 238.626 50.1654 238.848 50.1278 239.074C50.0901 239.299 50.0457 239.559 50.008 239.806C49.9807 239.965 49.9567 240.125 49.9362 240.284C49.8883 240.593 49.8473 240.905 49.8062 241.214C49.7823 241.394 49.7583 241.561 49.7378 241.752L49.6557 242.446C49.8301 243.014 50.0251 243.576 50.227 244.128C50.3559 244.43 50.4312 244.753 50.4494 245.082C54.6473 246.298 59.0973 246.298 63.2953 245.082C63.2938 245.07 63.2938 245.059 63.2953 245.047C63.2321 244.736 63.2045 244.418 63.2132 244.1V244.1C63.2823 243.21 63.3964 242.325 63.5553 241.446C63.6058 241.014 63.6275 240.578 63.6203 240.142V239.986C63.61 239.854 63.6066 239.729 63.6032 239.605ZM63.6032 239.605C63.6032 239.466 63.6032 239.327 63.5792 239.188C63.5553 239.049 63.5587 238.928 63.5416 238.796C63.5245 238.664 63.5108 238.533 63.4937 238.401C63.4766 238.269 63.4527 238.137 63.4287 238.005C63.4048 237.874 63.3808 237.742 63.3535 237.61C63.3535 237.565 63.3363 237.523 63.3261 237.478C63.2885 237.305 63.2474 237.131 63.2029 236.954C63.1585 236.777 63.1311 236.673 63.09 236.535C63.09 236.472 63.0558 236.41 63.0353 236.351C63.0148 236.292 62.9771 236.149 62.9464 236.049L62.8848 235.855C62.8574 235.768 62.83 235.681 62.7992 235.594C62.7479 235.438 62.6932 235.286 62.6385 235.13C62.5837 234.974 62.5256 234.821 62.4674 234.668C62.3511 234.356 62.2245 234.047 62.0979 233.739C61.6019 232.538 61.0443 231.355 60.5311 230.183C60.2553 229.568 60.011 228.94 59.799 228.299L59.734 228.393C59.63 228.553 59.5374 228.72 59.4569 228.893C59.4569 231.623 56.7611 234.963 56.7611 234.963L54.0483 230.957L51.6741 234.658C51.332 234.842 50.9899 235.473 50.723 236.372C50.6478 236.614 50.5759 236.878 50.5075 237.159C50.4596 237.346 50.4151 237.544 50.3741 237.742C50.3501 237.842 50.3296 237.943 50.3091 238.047L50.2475 238.363V238.411C50.2065 238.626 50.1654 238.848 50.1278 239.074C50.0901 239.299 50.0457 239.559 50.008 239.806C49.9807 239.965 49.9567 240.125 49.9362 240.284C49.8883 240.593 49.8473 240.905 49.8062 241.214C49.7823 241.394 49.7583 241.561 49.7378 241.752L49.6557 242.446C49.8301 243.014 50.0251 243.576 50.227 244.128C50.3559 244.43 50.4312 244.753 50.4494 245.082C54.6473 246.298 59.0973 246.298 63.2953 245.082C63.2938 245.07 63.2938 245.059 63.2953 245.047C63.2321 244.736 63.2045 244.418 63.2132 244.1V244.1C63.2823 243.21 63.3964 242.325 63.5553 241.446C63.6058 241.014 63.6275 240.578 63.6203 240.142V239.986C63.61 239.854 63.6066 239.729 63.6032 239.605ZM63.6032 239.605C63.6032 239.466 63.6032 239.327 63.5792 239.188C63.5553 239.049 63.5587 238.928 63.5416 238.796C63.5245 238.664 63.5108 238.533 63.4937 238.401C63.4766 238.269 63.4527 238.137 63.4287 238.005C63.4048 237.874 63.3808 237.742 63.3535 237.61C63.3535 237.565 63.3363 237.523 63.3261 237.478C63.2885 237.305 63.2474 237.131 63.2029 236.954C63.1585 236.777 63.1311 236.673 63.09 236.535C63.09 236.472 63.0558 236.41 63.0353 236.351C63.0148 236.292 62.9771 236.149 62.9464 236.049L62.8848 235.855C62.8574 235.768 62.83 235.681 62.7992 235.594C62.7479 235.438 62.6932 235.286 62.6385 235.13C62.5837 234.974 62.5256 234.821 62.4674 234.668C62.3511 234.356 62.2245 234.047 62.0979 233.739C61.6019 232.538 61.0443 231.355 60.5311 230.183C60.2553 229.568 60.011 228.94 59.799 228.299L59.734 228.393C59.63 228.553 59.5374 228.72 59.4569 228.893C59.4569 231.623 56.7611 234.963 56.7611 234.963L54.0483 230.957L51.6741 234.658C51.332 234.842 50.9899 235.473 50.723 236.372C50.6478 236.614 50.5759 236.878 50.5075 237.159C50.4596 237.346 50.4151 237.544 50.3741 237.742C50.3501 237.842 50.3296 237.943 50.3091 238.047L50.2475 238.363V238.411C50.2065 238.626 50.1654 238.848 50.1278 239.074C50.0901 239.299 50.0457 239.559 50.008 239.806C49.9807 239.965 49.9567 240.125 49.9362 240.284C49.8883 240.593 49.8473 240.905 49.8062 241.214C49.7823 241.394 49.7583 241.561 49.7378 241.752L49.6557 242.446C49.8301 243.014 50.0251 243.576 50.227 244.128C50.3559 244.43 50.4312 244.753 50.4494 245.082C54.6473 246.298 59.0973 246.298 63.2953 245.082C63.2938 245.07 63.2938 245.059 63.2953 245.047C63.2321 244.736 63.2045 244.418 63.2132 244.1V244.1C63.2823 243.21 63.3964 242.325 63.5553 241.446C63.6058 241.014 63.6275 240.578 63.6203 240.142V239.986C63.61 239.854 63.6066 239.729 63.6032 239.605ZM63.6032 239.605C63.6032 239.466 63.6032 239.327 63.5792 239.188C63.5553 239.049 63.5587 238.928 63.5416 238.796C63.5245 238.664 63.5108 238.533 63.4937 238.401C63.4766 238.269 63.4527 238.137 63.4287 238.005C63.4048 237.874 63.3808 237.742 63.3535 237.61C63.3535 237.565 63.3363 237.523 63.3261 237.478C63.2885 237.305 63.2474 237.131 63.2029 236.954C63.1585 236.777 63.1311 236.673 63.09 236.535C63.09 236.472 63.0558 236.41 63.0353 236.351C63.0148 236.292 62.9771 236.149 62.9464 236.049L62.8848 235.855C62.8574 235.768 62.83 235.681 62.7992 235.594C62.7479 235.438 62.6932 235.286 62.6385 235.13C62.5837 234.974 62.5256 234.821 62.4674 234.668C62.3511 234.356 62.2245 234.047 62.0979 233.739C61.6019 232.538 61.0443 231.355 60.5311 230.183C60.2553 229.568 60.011 228.94 59.799 228.299L59.734 228.393C59.63 228.553 59.5374 228.72 59.4569 228.893C59.4569 231.623 56.7611 234.963 56.7611 234.963L54.0483 230.957L51.6741 234.658C51.332 234.842 50.9899 235.473 50.723 236.372C50.6478 236.614 50.5759 236.878 50.5075 237.159C50.4596 237.346 50.4151 237.544 50.3741 237.742C50.3501 237.842 50.3296 237.943 50.3091 238.047L50.2475 238.363V238.411C50.2065 238.626 50.1654 238.848 50.1278 239.074C50.0901 239.299 50.0457 239.559 50.008 239.806C49.9807 239.965 49.9567 240.125 49.9362 240.284C49.8883 240.593 49.8473 240.905 49.8062 241.214C49.7823 241.394 49.7583 241.561 49.7378 241.752L49.6557 242.446C49.8301 243.014 50.0251 243.576 50.227 244.128C50.3559 244.43 50.4312 244.753 50.4494 245.082C54.6473 246.298 59.0973 246.298 63.2953 245.082C63.2938 245.07 63.2938 245.059 63.2953 245.047C63.2321 244.736 63.2045 244.418 63.2132 244.1V244.1C63.2823 243.21 63.3964 242.325 63.5553 241.446C63.6058 241.014 63.6275 240.578 63.6203 240.142V239.986C63.61 239.854 63.6066 239.729 63.6032 239.605ZM63.6032 239.605C63.6032 239.466 63.6032 239.327 63.5792 239.188C63.5553 239.049 63.5587 238.928 63.5416 238.796C63.5245 238.664 63.5108 238.533 63.4937 238.401C63.4766 238.269 63.4527 238.137 63.4287 238.005C63.4048 237.874 63.3808 237.742 63.3535 237.61C63.3535 237.565 63.3363 237.523 63.3261 237.478C63.2885 237.305 63.2474 237.131 63.2029 236.954C63.1585 236.777 63.1311 236.673 63.09 236.535C63.09 236.472 63.0558 236.41 63.0353 236.351C63.0148 236.292 62.9771 236.149 62.9464 236.049L62.8848 235.855C62.8574 235.768 62.83 235.681 62.7992 235.594C62.7479 235.438 62.6932 235.286 62.6385 235.13C62.5837 234.974 62.5256 234.821 62.4674 234.668C62.3511 234.356 62.2245 234.047 62.0979 233.739C61.6019 232.538 61.0443 231.355 60.5311 230.183C60.2553 229.568 60.011 228.94 59.799 228.299L59.734 228.393C59.63 228.553 59.5374 228.72 59.4569 228.893C59.4569 231.623 56.7611 234.963 56.7611 234.963L54.0483 230.957L51.6741 234.658C51.332 234.842 50.9899 235.473 50.723 236.372C50.6478 236.614 50.5759 236.878 50.5075 237.159C50.4596 237.346 50.4151 237.544 50.3741 237.742C50.3501 237.842 50.3296 237.943 50.3091 238.047L50.2475 238.363V238.411C50.2065 238.626 50.1654 238.848 50.1278 239.074C50.0901 239.299 50.0457 239.559 50.008 239.806C49.9807 239.965 49.9567 240.125 49.9362 240.284C49.8883 240.593 49.8473 240.905 49.8062 241.214C49.7823 241.394 49.7583 241.561 49.7378 241.752L49.6557 242.446C49.8301 243.014 50.0251 243.576 50.227 244.128C50.3559 244.43 50.4312 244.753 50.4494 245.082C54.6473 246.298 59.0973 246.298 63.2953 245.082C63.2938 245.07 63.2938 245.059 63.2953 245.047C63.2321 244.736 63.2045 244.418 63.2132 244.1V244.1C63.2823 243.21 63.3964 242.325 63.5553 241.446C63.6058 241.014 63.6275 240.578 63.6203 240.142V239.986C63.61 239.854 63.6066 239.729 63.6032 239.605ZM63.6032 239.605C63.6032 239.466 63.6032 239.327 63.5792 239.188C63.5553 239.049 63.5587 238.928 63.5416 238.796C63.5245 238.664 63.5108 238.533 63.4937 238.401C63.4766 238.269 63.4527 238.137 63.4287 238.005C63.4048 237.874 63.3808 237.742 63.3535 237.61C63.3535 237.565 63.3363 237.523 63.3261 237.478C63.2885 237.305 63.2474 237.131 63.2029 236.954C63.1585 236.777 63.1311 236.673 63.09 236.535C63.09 236.472 63.0558 236.41 63.0353 236.351C63.0148 236.292 62.9771 236.149 62.9464 236.049L62.8848 235.855C62.8574 235.768 62.83 235.681 62.7992 235.594C62.7479 235.438 62.6932 235.286 62.6385 235.13C62.5837 234.974 62.5256 234.821 62.4674 234.668C62.3511 234.356 62.2245 234.047 62.0979 233.739C61.6019 232.538 61.0443 231.355 60.5311 230.183C60.2553 229.568 60.011 228.94 59.799 228.299L59.734 228.393C59.63 228.553 59.5374 228.72 59.4569 228.893C59.4569 231.623 56.7611 234.963 56.7611 234.963L54.0483 230.957L51.6741 234.658C51.332 234.842 50.9899 235.473 50.723 236.372C50.6478 236.614 50.5759 236.878 50.5075 237.159C50.4596 237.346 50.4151 237.544 50.3741 237.742C50.3501 237.842 50.3296 237.943 50.3091 238.047L50.2475 238.363V238.411C50.2065 238.626 50.1654 238.848 50.1278 239.074C50.0901 239.299 50.0457 239.559 50.008 239.806C49.9807 239.965 49.9567 240.125 49.9362 240.284C49.8883 240.593 49.8473 240.905 49.8062 241.214C49.7823 241.394 49.7583 241.561 49.7378 241.752L49.6557 242.446C49.8301 243.014 50.0251 243.576 50.227 244.128C50.3559 244.43 50.4312 244.753 50.4494 245.082C54.6473 246.298 59.0973 246.298 63.2953 245.082C63.2938 245.07 63.2938 245.059 63.2953 245.047C63.2321 244.736 63.2045 244.418 63.2132 244.1V244.1C63.2823 243.21 63.3964 242.325 63.5553 241.446C63.6058 241.014 63.6275 240.578 63.6203 240.142V239.986C63.61 239.854 63.6066 239.729 63.6032 239.605ZM63.6032 239.605C63.6032 239.466 63.6032 239.327 63.5792 239.188C63.5553 239.049 63.5587 238.928 63.5416 238.796C63.5245 238.664 63.5108 238.533 63.4937 238.401C63.4766 238.269 63.4527 238.137 63.4287 238.005C63.4048 237.874 63.3808 237.742 63.3535 237.61C63.3535 237.565 63.3363 237.523 63.3261 237.478C63.2885 237.305 63.2474 237.131 63.2029 236.954C63.1585 236.777 63.1311 236.673 63.09 236.535C63.09 236.472 63.0558 236.41 63.0353 236.351C63.0148 236.292 62.9771 236.149 62.9464 236.049L62.8848 235.855C62.8574 235.768 62.83 235.681 62.7992 235.594C62.7479 235.438 62.6932 235.286 62.6385 235.13C62.5837 234.974 62.5256 234.821 62.4674 234.668C62.3511 234.356 62.2245 234.047 62.0979 233.739C61.6019 232.538 61.0443 231.355 60.5311 230.183C60.2553 229.568 60.011 228.94 59.799 228.299L59.734 228.393C59.63 228.553 59.5374 228.72 59.4569 228.893C59.4569 231.623 56.7611 234.963 56.7611 234.963L54.0483 230.957L51.6741 234.658C51.332 234.842 50.9899 235.473 50.723 236.372C50.6478 236.614 50.5759 236.878 50.5075 237.159C50.4596 237.346 50.4151 237.544 50.3741 237.742C50.3501 237.842 50.3296 237.943 50.3091 238.047L50.2475 238.363V238.411C50.2065 238.626 50.1654 238.848 50.1278 239.074C50.0901 239.299 50.0457 239.559 50.008 239.806C49.9807 239.965 49.9567 240.125 49.9362 240.284C49.8883 240.593 49.8473 240.905 49.8062 241.214C49.7823 241.394 49.7583 241.561 49.7378 241.752L49.6557 242.446C49.8301 243.014 50.0251 243.576 50.227 244.128C50.3559 244.43 50.4312 244.753 50.4494 245.082C54.6473 246.298 59.0973 246.298 63.2953 245.082C63.2938 245.07 63.2938 245.059 63.2953 245.047C63.2321 244.736 63.2045 244.418 63.2132 244.1V244.1C63.2823 243.21 63.3964 242.325 63.5553 241.446C63.6058 241.014 63.6275 240.578 63.6203 240.142V239.986C63.61 239.854 63.6066 239.729 63.6032 239.605Z" fill="#444176"/>
<path opacity="0.1" d="M54.0965 230.724L53.8673 230.693C53.5212 230.645 53.1784 230.576 52.8409 230.485L52.7144 230.45C51.8796 230.211 50.9662 229.781 50.761 229.024C50.6998 228.781 50.707 228.525 50.7815 228.285C50.8963 227.873 51.0522 227.473 51.2467 227.092V227.071C51.2725 227.018 51.301 226.966 51.3323 226.915C51.6146 226.356 52.0414 225.885 52.5673 225.552L52.1567 225.618L48.681 226.19L43.2929 227.071C43.2929 227.071 42.335 226.877 41.0316 230.519C41.0316 230.565 41.0008 230.606 40.9871 230.655C40.6724 231.546 40.3405 232.66 39.9984 234.051C39.7624 235.015 39.5468 235.962 39.3484 236.881C39.2903 237.159 39.2321 237.433 39.1774 237.704C39.7942 238.441 40.4581 239.136 41.165 239.785L41.2779 239.892C42.6623 241.164 44.1922 242.262 45.8347 243.164L45.8997 243.198C46.9329 243.763 48.0081 244.246 49.1154 244.641L49.4062 244.745C49.4678 244.104 49.5362 243.393 49.6183 242.664C49.6183 242.591 49.6183 242.518 49.6457 242.446L49.7278 241.752C49.7483 241.575 49.7723 241.405 49.7962 241.214C49.8373 240.905 49.8783 240.593 49.9262 240.284C49.9468 240.125 49.9707 239.965 49.9981 239.806C50.0357 239.559 50.0768 239.313 50.1178 239.074C50.1589 238.834 50.1965 238.626 50.2375 238.411V238.363L50.2991 238.047C50.3197 237.943 50.3402 237.842 50.3641 237.742C50.4052 237.544 50.4496 237.346 50.4975 237.159C50.566 236.878 50.6378 236.614 50.7131 236.371C50.9868 235.473 51.3049 234.842 51.6641 234.658L54.0383 230.957L54.1375 230.8L54.182 230.731L54.0965 230.724Z" fill="black"/>
<path opacity="0.1" d="M54.6674 212.256C55.7348 212.072 56.809 211.676 57.8695 211.909C58.759 212.096 59.5014 212.696 60.3156 213.113C61.1016 213.513 61.9615 213.744 62.8403 213.789C63.1608 213.832 63.4863 213.767 63.7674 213.605C64.1916 213.307 64.2531 212.696 64.1813 212.176C63.976 210.698 63.0661 209.429 62.1287 208.277C61.7546 207.785 61.3226 207.341 60.8424 206.955C59.6142 206.036 57.9893 205.88 56.4669 205.949C54.729 206.029 52.9638 206.369 51.4551 207.254C50.4288 207.85 48.0751 209.73 48.8928 211.09C49.7514 212.512 53.323 212.488 54.6674 212.256Z" fill="black"/>
<path opacity="0.5" d="M54.6674 211.909C55.7348 211.725 56.809 211.33 57.8695 211.562C58.759 211.749 59.5014 212.349 60.3156 212.766C61.1016 213.167 61.9615 213.397 62.8403 213.442C63.1608 213.485 63.4863 213.42 63.7674 213.258C64.1916 212.96 64.2531 212.349 64.1813 211.829C63.976 210.351 63.0661 209.082 62.1287 207.93C61.7546 207.438 61.3226 206.994 60.8424 206.608C59.6142 205.689 57.9893 205.533 56.4669 205.602C54.729 205.682 52.9638 206.022 51.4551 206.907C50.4288 207.503 48.0751 209.384 48.8928 210.743C49.7514 212.166 53.323 212.141 54.6674 211.909Z" fill="#444176"/>
</g>
<path d="M148.612 194.922H148.664C148.739 197.246 149.064 199.348 149.69 199.931C151.181 201.318 157.367 198.543 156.942 196.864C156.857 196.517 156.713 195.948 156.532 195.23C158.201 195.019 159.628 194.537 160.196 193.544L161.27 196.902L161.345 197.142H161.366H161.427C162.136 203.948 163.74 218.08 165.023 219.974C166.733 222.482 168.7 233.35 168.7 233.35L172.378 255.645C172.378 255.645 173.794 268.48 174.643 269.867C174.89 270.132 175.218 270.304 175.573 270.356C175.077 271.862 174.366 273.62 173.521 274.602C171.81 276.552 169.559 280.454 167.578 280.177C165.598 279.899 165.033 284.079 168.711 284.634C170.746 284.943 173.993 284.568 176.487 284.173C176.487 285.29 177.253 286.573 179.179 286.865C182.857 287.423 190.496 285.751 190.496 285.751C190.496 285.751 196.996 282.976 197.287 281.013C197.492 279.59 196.496 273.881 195.942 270.887C196.968 269.218 195.874 254.819 195.874 254.819L193.893 227.231C193.893 227.231 195.025 211.905 193.893 209.116C193.185 207.382 192.921 199.403 192.822 193.697L194.191 193.787C194.268 193.692 194.339 193.591 194.403 193.486L194.745 193.51C194.745 193.51 196.455 191.56 195.029 188.494C193.978 186.215 194.177 175.926 194.344 170.802L194.546 168.374C194.621 168.3 194.679 168.21 194.714 168.111C197.367 167.747 199.946 166.956 202.353 165.766C203.079 165.459 203.755 165.043 204.358 164.531C205.774 163.143 204.922 154.776 202.093 142.236C199.264 129.696 196.719 130.81 196.719 130.81C196.719 130.81 189.928 130.251 186.815 126.071C183.702 121.891 181.611 121.947 181.611 121.947C181.533 121.398 181.478 120.882 181.44 120.399C181.44 120.219 181.413 120.052 181.403 119.872C182.461 118.874 183.268 117.633 183.756 116.254C184.393 115.907 185.176 115.793 185.785 115.356C185.94 115.241 186.082 115.108 186.206 114.96C186.816 114.389 187.203 113.615 187.297 112.778C187.394 111.865 187.351 110.942 187.171 110.041C186.955 108.709 186.637 107.346 185.871 106.298C185.104 105.251 183.958 104.619 182.853 104.033C179.861 102.44 176.861 100.863 173.853 99.3016C173.265 98.9374 172.609 98.7012 171.926 98.6078C170.722 98.5384 169.641 99.3744 168.67 100.169C168.282 100.478 167.911 100.808 167.558 101.157C167.258 101.427 166.984 101.726 166.74 102.049C165.604 103.593 165.122 106.5 165.622 108.428C165.779 109.039 166.118 109.216 166.535 109.209C165.916 110.457 165.593 111.835 165.594 113.233C165.601 114.763 165.987 116.266 166.717 117.605C167.447 118.944 168.497 120.076 169.771 120.895C169.771 121.09 169.771 121.28 169.788 121.464C169.802 122.176 169.78 122.888 169.72 123.598C169.72 123.598 162.194 127.722 161.349 129.672C160.504 131.621 157.387 133.016 157.387 133.016C157.387 133.016 151.445 136.082 151.445 146.95L148.332 162.276L147.767 191.536C147.767 191.536 148.157 191.189 148.794 190.697C148.773 190.891 148.756 191.092 148.739 191.297C148.654 192.415 148.625 193.537 148.653 194.658L148.612 194.922ZM186.62 270.651C186.503 271.099 186.332 271.692 186.117 272.385C186.021 271.81 185.925 271.241 185.83 270.7C186.076 270.675 186.339 270.661 186.62 270.651V270.651Z" fill="url(#paint2_linear)"/>
<path d="M176.343 267.057C176.343 267.057 175.252 272.032 173.606 273.964C171.961 275.896 169.805 279.767 167.903 279.49C166.001 279.212 165.451 283.358 168.995 283.909C172.539 284.461 179.877 282.806 179.877 282.806C179.877 282.806 186.144 280.031 186.414 278.109C186.685 276.187 184.779 266.228 184.779 266.228L176.343 267.057Z" fill="#53526B"/>
<path opacity="0.05" d="M176.343 267.057C176.343 267.057 175.252 272.032 173.606 273.964C171.961 275.896 169.805 279.767 167.903 279.49C166.001 279.212 165.451 283.358 168.995 283.909C172.539 284.461 179.877 282.806 179.877 282.806C179.877 282.806 186.144 280.031 186.414 278.109C186.685 276.187 184.779 266.228 184.779 266.228L176.343 267.057Z" fill="black"/>
<path d="M186.425 269.267C186.425 269.267 185.333 274.241 183.688 276.174C182.042 278.106 179.877 281.977 177.978 281.699C176.08 281.422 175.525 285.567 179.07 286.119C182.614 286.67 189.969 285.012 189.969 285.012C189.969 285.012 196.236 282.237 196.506 280.315C196.777 278.394 194.871 268.434 194.871 268.434L186.425 269.267Z" fill="#53526B"/>
<path d="M161.629 193.572C161.629 193.572 163.808 217.331 165.444 219.818C167.079 222.305 168.984 233.079 168.984 233.079L172.525 255.18C172.525 255.18 173.894 267.89 174.704 269.27C175.515 270.651 185.628 270.058 185.628 270.058L179.34 196.885L161.629 193.572Z" fill="#5F5D7E"/>
<path opacity="0.05" d="M161.629 193.572C161.629 193.572 163.808 217.331 165.444 219.818C167.079 222.305 168.984 233.079 168.984 233.079L172.525 255.18C172.525 255.18 173.894 267.89 174.704 269.27C175.515 270.651 185.628 270.058 185.628 270.058L179.34 196.885L161.629 193.572Z" fill="black"/>
<path d="M157.271 182.24L157.982 184.532L161.831 196.92L161.906 197.156H161.927C162.443 197.274 173.35 199.816 175.703 200.597C175.83 200.637 175.955 200.684 176.076 200.739C177.167 201.291 178.529 221.181 178.529 221.181C178.529 221.181 179.347 239.969 179.897 241.349C180.448 242.73 182.634 271.182 183.986 270.356C185.337 269.531 195.155 270.356 195.155 270.356C196.246 269.25 195.155 254.333 195.155 254.333L193.219 226.988C193.219 226.988 194.31 211.794 193.219 209.03C192.128 206.265 192.128 187.758 192.128 187.758L169.826 184.224L167.671 183.877L157.271 182.24Z" fill="#5F5D7E"/>
<path opacity="0.02" d="M157.982 184.536L161.831 196.923L161.923 197.166C162.44 197.284 173.346 199.827 175.7 200.607H175.936L169.843 184.227L169.668 183.755L167.688 183.884L157.982 184.536Z" fill="black"/>
<path opacity="0.1" d="M183.428 126.99C183.428 126.99 173.346 138.042 167.079 128.923L161.085 133.068L162.176 139.423L158.632 187.491C158.632 187.491 167.896 187.214 174.434 189.424C176.255 190.078 178.222 190.192 180.105 189.752C181.987 189.311 183.706 188.334 185.06 186.936L183.982 144.671L186.435 131.687L183.428 126.99Z" fill="black"/>
<path d="M183.428 126.161C183.428 126.161 173.346 137.213 167.079 128.093L161.085 132.239L162.176 138.594L158.632 186.662C158.632 186.662 167.896 186.385 174.434 188.594C176.255 189.249 178.222 189.363 180.105 188.923C181.987 188.482 183.706 187.505 185.06 186.107L183.982 143.842L186.435 130.858L183.428 126.161Z" fill="#53526B"/>
<path d="M163.302 175.378V177.119H162.755V175.961H160.753V177.119H160.203V175.381L163.302 175.378Z" fill="#E82127"/>
<path d="M162.813 174.816H160.699C160.56 174.782 160.433 174.711 160.332 174.609C160.231 174.508 160.159 174.38 160.124 174.24H163.384C163.349 174.38 163.277 174.507 163.176 174.609C163.074 174.71 162.948 174.782 162.809 174.816" fill="#E82127"/>
<path d="M181.93 174.261C181.893 174.399 181.821 174.525 181.721 174.626C181.62 174.727 181.495 174.798 181.358 174.833H180.469L180.424 174.85V177.126H179.877V174.85L179.826 174.833H178.936C178.8 174.797 178.675 174.725 178.575 174.625C178.474 174.524 178.402 174.399 178.365 174.261V174.261H181.93Z" fill="#E82127"/>
<path d="M162.447 183.349C162.447 183.349 162.447 190.534 160.812 193.572C159.176 196.611 149.642 194.96 149.642 194.96L151.547 184.737L162.447 183.349Z" fill="#FF9B21"/>
<path d="M150.679 199.931C152.115 201.318 158.071 198.543 157.661 196.892C157.373 195.723 156.368 191.539 155.796 189.167L155.4 187.498C155.4 187.498 151.91 186.392 150.679 187.498C150.23 187.901 149.916 189.486 149.769 191.401C149.515 194.727 149.772 199.05 150.679 199.931Z" fill="#FDC2CC"/>
<path d="M163.798 131.132L173.332 138.59C173.332 138.59 187.499 137.761 183.958 130.855C182.416 127.817 181.486 124.499 181.221 121.093C181.106 119.837 181.106 118.572 181.221 117.316C181.221 117.316 168.143 105.175 169.778 118.974C169.907 120.033 169.982 121.098 170.004 122.165C170.199 132.523 163.798 131.132 163.798 131.132Z" fill="#FDC2CC"/>
<path opacity="0.1" d="M169.805 118.977C169.934 120.036 170.01 121.102 170.031 122.169C171.499 123.154 173.221 123.678 174.981 123.674C177.421 123.674 179.217 121.267 180.838 119.668C180.657 117.375 181.245 117.319 181.245 117.319C181.245 117.319 168.17 105.164 169.805 118.977Z" fill="black"/>
<path d="M174.981 123.122C179.947 123.122 183.972 119.041 183.972 114.006C183.972 108.971 179.947 104.89 174.981 104.89C170.016 104.89 165.991 108.971 165.991 114.006C165.991 119.041 170.016 123.122 174.981 123.122Z" fill="#FDC2CC"/>
<path opacity="0.1" d="M181.382 122.706C181.382 122.706 182.881 122.845 185.877 126.987C188.874 131.129 195.412 131.684 195.412 131.684C195.412 131.684 197.865 130.577 200.588 143.01C203.311 155.442 204.129 163.729 202.767 165.11C201.405 166.491 195.956 168.43 193.219 168.43C193.219 168.43 192.401 185.833 193.763 188.872C195.124 191.911 193.489 193.846 193.489 193.846L181.516 193.017C181.516 193.017 177.427 187.769 176.61 178.653C175.792 169.536 173.069 143.565 174.431 140.526C175.792 137.487 181.786 129.752 181.516 128.923C181.245 128.093 181.382 122.706 181.382 122.706Z" fill="black"/>
<path d="M181.413 122.623C181.413 122.623 183.428 122.567 186.425 126.713C189.421 130.858 195.956 131.41 195.956 131.41C195.956 131.41 198.409 130.303 201.132 142.736C203.855 155.168 204.672 163.455 203.311 164.836C201.949 166.217 196.5 168.152 193.776 168.152C193.776 168.152 192.959 185.556 194.32 188.594C195.682 191.633 194.047 193.569 194.047 193.569L182.073 192.74C182.073 192.74 177.985 187.491 177.167 178.375C176.35 169.259 173.62 143.291 174.981 140.266C176.343 137.241 182.337 129.491 182.066 128.662C181.796 127.833 181.413 122.623 181.413 122.623Z" fill="#FF9B21"/>
<path opacity="0.1" d="M149.772 191.397C151.075 190.388 153.535 188.816 155.8 189.163L155.403 187.495C155.403 187.495 151.913 186.388 150.682 187.495C150.227 187.897 149.916 189.479 149.772 191.397Z" fill="black"/>
<path opacity="0.1" d="M169.956 124.364C169.956 124.364 163.008 128.923 162.19 130.858C161.373 132.794 158.376 134.174 158.376 134.174C158.376 134.174 152.656 137.213 152.656 147.988L149.659 163.181L163.281 182.52C163.281 182.52 164.917 163.181 165.734 158.484C166.552 153.788 167.64 144.956 167.64 144.956C167.64 144.956 171.728 139.707 171.181 138.327C170.633 136.946 169.956 124.364 169.956 124.364Z" fill="black"/>
<path d="M169.956 124.281C169.956 124.281 162.71 128.371 161.896 130.303C161.082 132.235 158.082 133.619 158.082 133.619C158.082 133.619 152.362 136.658 152.362 147.433L149.365 162.626L148.821 191.633C148.821 191.633 153.727 186.936 157.267 189.146C160.808 191.356 162.987 181.962 162.987 181.962C162.987 181.962 164.623 162.623 165.44 157.926C166.258 153.229 167.346 144.397 167.346 144.397C167.346 144.397 171.434 139.149 170.886 137.768C170.339 136.388 169.956 124.281 169.956 124.281Z" fill="#FF9B21"/>
<path opacity="0.1" d="M167.089 102.916C167.55 102.321 168.084 101.787 168.676 101.327C169.614 100.537 170.65 99.711 171.813 99.7803C172.472 99.8692 173.104 100.099 173.668 100.453C176.564 102 179.453 103.564 182.333 105.143C183.397 105.726 184.495 106.343 185.238 107.391C185.98 108.439 186.281 109.785 186.49 111.103C186.664 111.996 186.706 112.91 186.613 113.815C186.528 114.703 186.103 115.521 185.429 116.095C184.653 116.667 183.589 116.67 182.939 117.42C182.562 117.853 182.398 118.46 182.131 118.988C181.864 119.515 181.403 120.028 180.876 119.935C180.349 119.841 180.031 119.276 179.956 118.703C179.922 118.123 179.955 117.541 180.055 116.969C180.157 115.928 180.027 114.825 179.432 114.051C179.022 113.524 178.433 113.205 178.036 112.664C177.085 111.359 177.52 109.195 176.476 107.97C176.173 107.65 175.792 107.417 175.371 107.296C174.951 107.174 174.506 107.167 174.082 107.277C173.237 107.457 172.463 107.922 171.687 108.317C170.638 108.854 169.539 109.284 168.406 109.601C167.455 109.864 166.354 110.496 166.029 109.212C165.532 107.329 165.994 104.446 167.089 102.916Z" fill="black"/>
<path d="M167.363 102.642C167.824 102.047 168.357 101.513 168.95 101.053C169.887 100.263 170.924 99.4369 172.087 99.5063C172.745 99.5951 173.377 99.8245 173.941 100.179C176.836 101.726 179.241 100.263 182.607 104.869C183.325 105.854 184.769 106.069 185.511 107.117C186.254 108.165 186.555 109.511 186.763 110.829C186.938 111.722 186.98 112.636 186.887 113.541C186.802 114.429 186.377 115.247 185.703 115.82C184.926 116.393 183.862 116.396 183.212 117.146C182.836 117.579 182.672 118.186 182.405 118.714C182.138 119.241 181.676 119.754 181.149 119.661C180.623 119.567 180.304 119.001 180.229 118.429C180.196 117.849 180.229 117.267 180.328 116.695C180.431 115.654 180.301 114.551 179.706 113.777C179.295 113.25 178.707 112.931 178.31 112.39C177.359 111.085 177.793 108.921 176.75 107.696C176.447 107.376 176.066 107.143 175.645 107.022C175.224 106.9 174.779 106.893 174.355 107.003C173.51 107.183 172.737 107.648 171.961 108.043C170.912 108.58 169.813 109.01 168.68 109.327C167.729 109.59 166.627 110.222 166.302 108.938C165.803 107.055 166.268 104.168 167.363 102.642Z" fill="#865A61"/>
<path opacity="0.1" d="M191.919 144.807C191.919 144.807 195.552 154.2 192.825 158.068L186.832 156.681C186.832 156.681 192.282 158.339 191.464 155.022C190.646 151.706 191.919 144.807 191.919 144.807Z" fill="black"/>
<path opacity="0.1" d="M193.903 168.017C193.903 168.017 186 168.569 183.821 166.91C186.691 169.132 190.08 170.56 193.657 171.056L193.903 168.017Z" fill="black"/>
<path opacity="0.1" d="M159.861 150.326C159.861 150.326 155.772 163.036 156.046 164.968C156.32 166.9 156.864 188.175 156.864 188.175L157.681 187.897L157.408 164.69L159.861 150.326Z" fill="black"/>
<path d="M194.864 165.859L101.47 89.5436C100.927 88.9927 100.281 88.5559 99.5712 88.2582C98.8608 87.9606 98.0996 87.808 97.331 87.8092H93.3627C101.293 77.5044 105.048 64.5205 103.863 51.5049C102.678 38.4893 96.6415 26.4222 86.9845 17.764C77.3275 9.10584 64.7773 4.50861 51.8928 4.9097C39.0083 5.31079 26.7598 10.68 17.6448 19.9226C8.52984 29.1651 3.23473 41.585 2.83917 54.6498C2.44362 67.7146 6.97741 80.4404 15.5161 90.2325C24.0548 100.025 35.9554 106.146 48.7914 107.347C61.6273 108.549 74.432 104.741 84.5946 96.6999V100.72C84.5935 101.5 84.744 102.272 85.0375 102.992C85.331 103.712 85.7618 104.367 86.3051 104.918L179.699 181.233C180.24 181.786 180.883 182.225 181.592 182.524C182.3 182.824 183.06 182.978 183.828 182.978C184.596 182.978 185.356 182.824 186.065 182.524C186.773 182.225 187.417 181.786 187.957 181.233L194.84 174.261C195.939 173.148 196.558 171.64 196.562 170.065C196.567 168.491 195.956 166.979 194.864 165.859V165.859ZM53.4154 87.8092C47.2487 87.8092 41.2206 85.955 36.0932 82.481C30.9658 79.007 26.9695 74.0694 24.6096 68.2924C22.2497 62.5154 21.6322 56.1586 22.8353 50.0258C24.0384 43.893 27.0079 38.2596 31.3684 33.8381C35.7289 29.4166 41.2845 26.4055 47.3326 25.1856C53.3808 23.9658 59.6499 24.5918 65.3472 26.9848C71.0444 29.3777 75.9139 33.4299 79.3399 38.629C82.766 43.8282 84.5946 49.9407 84.5946 56.1937C84.5977 60.3467 83.7935 64.4596 82.2278 68.2972C80.6621 72.1348 78.3656 75.6218 75.4699 78.5588C72.5741 81.4957 69.1357 83.8251 65.3514 85.4135C61.5671 87.002 57.5111 87.8184 53.4154 87.8161V87.8092Z" fill="url(#paint3_linear)"/>
<path d="M194.512 163.871L99.9203 86.5153C99.3698 85.9569 98.7161 85.5141 97.9967 85.2125C97.2772 84.9108 96.5062 84.7561 95.7278 84.7573H91.7085C99.7405 74.3121 103.544 61.1513 102.344 47.9584C101.143 34.7654 95.0294 22.5339 85.2486 13.7577C75.4678 4.98158 62.7566 0.32171 49.7069 0.728265C36.6571 1.13482 24.2516 6.57719 15.0197 15.9457C5.78782 25.3142 0.4248 37.9032 0.0241721 51.146C-0.376456 64.3888 4.21548 77.2881 12.8637 87.2136C21.5119 97.1391 33.5651 103.343 46.5656 104.562C59.5662 105.78 72.5351 101.92 82.828 93.7692V97.8444C82.8269 98.6343 82.9793 99.4167 83.2766 100.147C83.5739 100.877 84.0102 101.54 84.5605 102.099L179.152 179.454C179.7 180.015 180.351 180.459 181.069 180.763C181.787 181.066 182.557 181.223 183.334 181.223C184.112 181.223 184.882 181.066 185.599 180.763C186.317 180.459 186.969 180.015 187.516 179.454L194.488 172.387C195.6 171.259 196.227 169.73 196.232 168.134C196.236 166.538 195.618 165.005 194.512 163.871ZM51.249 84.7573C45.0032 84.7573 38.8978 82.8778 33.7046 79.3565C28.5115 75.8352 24.4639 70.8302 22.0738 64.9746C19.6836 59.1189 19.0583 52.6754 20.2767 46.4591C21.4952 40.2427 24.5028 34.5326 28.9192 30.0509C33.3356 25.5691 38.9625 22.517 45.0882 21.2805C51.214 20.044 57.5635 20.6786 63.3338 23.1041C69.1041 25.5296 74.0361 29.637 77.506 34.907C80.976 40.177 82.828 46.3728 82.828 52.711C82.8312 56.9206 82.0166 61.0896 80.4308 64.9795C78.8451 68.8693 76.5192 72.4038 73.5863 75.3808C70.6533 78.3578 67.1709 80.7189 63.3381 82.3289C59.5052 83.939 55.3972 84.7666 51.249 84.7643V84.7573Z" fill="#1A3263"/>
<path d="M188.604 158.207C188.604 158.207 174.971 142.354 176.887 153.233C178.255 160.968 183.424 165.114 185.877 165.943C188.33 166.772 188.604 158.207 188.604 158.207Z" fill="#FDC2CC"/>
<path d="M191.874 143.565C191.874 143.565 192.148 153.787 193.51 155.168C194.871 156.549 192.692 158.207 192.692 158.207L187.242 156.819C187.242 156.819 188.611 165.936 182.884 164.832C182.884 164.832 186.698 168.423 190.513 168.978C194.327 169.533 194.054 168.149 194.054 168.149L199.774 161.242L191.874 143.565Z" fill="#FF9B21"/>
<path d="M193.383 168.298L198.911 167.066L198.173 164.482L194.752 163.095L190.304 165.176L193.383 168.298Z" fill="#FF9B21"/>
<path d="M57.5104 68.6019L64.869 62.8471C64.869 62.8471 59.9393 63.9189 60.0796 55.9301C60.0779 55.9035 60.0779 55.8769 60.0796 55.8503C60.0796 55.1288 60.148 54.3379 60.2506 53.4672C61.513 42.8072 51.421 52.1871 51.421 52.1871C51.5079 53.1309 51.5079 54.0809 51.421 55.0247C51.421 55.049 51.421 55.0767 51.421 55.101C51.2214 57.7279 50.5073 60.2882 49.3205 62.632C46.5803 67.9602 57.5104 68.6019 57.5104 68.6019Z" fill="#FDC2CC"/>
<path opacity="0.1" d="M52.3617 53.5435C53.6104 54.7749 54.3733 57.0124 56.2514 57.0124C57.6103 57.0154 58.9397 56.6111 60.0727 55.8503C60.0727 55.1288 60.1411 54.3379 60.2437 53.4672C61.5061 42.8072 51.4141 52.1871 51.4141 52.1871C51.4141 52.1871 52.4951 51.809 52.3617 53.5435Z" fill="black"/>
<path d="M56.2514 56.6654C60.0831 56.6654 63.1893 53.5158 63.1893 49.6305C63.1893 45.7452 60.0831 42.5956 56.2514 42.5956C52.4198 42.5956 49.3136 45.7452 49.3136 49.6305C49.3136 53.5158 52.4198 56.6654 56.2514 56.6654Z" fill="#FDC2CC"/>
<path opacity="0.1" d="M62.9053 40.6219C62.5075 40.112 62.0477 39.6551 61.5369 39.2621C60.7364 38.5856 59.8469 37.8745 58.8514 37.9369C58.2881 38.013 57.747 38.2092 57.264 38.5128C54.7838 39.8379 52.7277 38.5856 49.8438 42.5263C49.228 43.3692 47.993 43.567 47.3567 44.4515C46.7204 45.3361 46.4638 46.4982 46.2825 47.629C46.1327 48.394 46.0969 49.1774 46.1765 49.9532C46.2525 50.7146 46.6212 51.415 47.2028 51.9027C47.8665 52.3918 48.7799 52.3953 49.3375 53.037C49.6179 53.455 49.8476 53.9058 50.0217 54.3795C50.2475 54.8304 50.6443 55.2571 51.0959 55.1912C51.5475 55.1253 51.8177 54.6292 51.8827 54.1505C51.911 53.6551 51.8823 53.158 51.7972 52.6693C51.7117 51.7917 51.8212 50.8343 52.3309 50.1717C52.673 49.7173 53.1862 49.4467 53.5248 48.9854C54.339 47.8718 53.9696 46.0021 54.8625 44.9684C55.1236 44.6965 55.4511 44.4997 55.8117 44.3979C56.1722 44.2961 56.553 44.2931 56.9151 44.3891C57.6342 44.5972 58.324 44.898 58.9677 45.2841C59.8658 45.7438 60.8066 46.1121 61.7764 46.3837C62.5906 46.6092 63.5348 47.1503 63.8119 46.0368C64.2463 44.3995 63.8392 41.9296 62.9053 40.6219Z" fill="black"/>
<path d="M62.9053 40.2749C62.5075 39.765 62.0477 39.3082 61.5369 38.9151C60.7364 38.2387 59.8469 37.5276 58.8514 37.59C58.2881 37.666 57.747 37.8623 57.264 38.1659C54.7838 39.491 52.7277 38.2387 49.8438 42.1794C49.228 43.0223 47.993 43.22 47.3567 44.1046C46.7204 44.9892 46.4638 46.1512 46.2825 47.2821C46.1327 48.0471 46.0969 48.8305 46.1765 49.6063C46.2525 50.3676 46.6212 51.068 47.2028 51.5558C47.8665 52.0449 48.7799 52.0484 49.3375 52.6901C49.6179 53.1081 49.8476 53.5588 50.0217 54.0326C50.2475 54.4835 50.6443 54.9102 51.0959 54.8443C51.5475 54.7784 51.8177 54.2823 51.8827 53.8036C51.911 53.3082 51.8823 52.8111 51.7972 52.3224C51.7117 51.4448 51.8212 50.4874 52.3309 49.8248C52.673 49.3704 53.1862 49.0998 53.5248 48.6384C54.339 47.5249 53.9696 45.6552 54.8625 44.6215C55.1236 44.3496 55.4511 44.1527 55.8117 44.051C56.1722 43.9492 56.553 43.9462 56.9151 44.0422C57.6342 44.2503 58.324 44.5511 58.9677 44.9371C59.8658 45.3968 60.8066 45.7652 61.7764 46.0368C62.5906 46.2622 63.5348 46.8034 63.8119 45.6899C64.2463 44.0526 63.8392 41.5827 62.9053 40.2749Z" fill="#865A61"/>
<path opacity="0.1" d="M49.3136 72.3033L49.1767 77.628C51.1649 78.1759 53.2162 78.4524 55.2764 78.4501C55.6185 78.4501 55.9777 78.4501 56.3267 78.4259C58.1537 78.346 59.9648 78.0456 61.7216 77.5309H61.7558C62.0808 77.4337 62.4024 77.3332 62.7206 77.2221H62.7548L63.0456 77.1181C64.1529 76.7227 65.2281 76.2402 66.2613 75.675L66.3263 75.6403C66.4392 75.5779 66.5521 75.5154 66.6684 75.4495L66.1382 68.2724L66.9832 63.35L62.3579 60.1552C62.0983 60.5354 61.8076 60.8928 61.489 61.2236C61.0324 61.7072 60.4979 62.1084 59.9085 62.41C56.5901 64.0681 52.8133 61.4317 50.9351 59.8014L50.5075 59.4163C50.0217 58.9688 49.7446 58.6636 49.7446 58.6636L47.432 62.2851L49.3136 72.3033Z" fill="black"/>
<path d="M49.3136 72.6501L49.1767 77.9748C51.1649 78.5227 53.2162 78.7992 55.2764 78.7969C55.6185 78.7969 55.9777 78.797 56.3267 78.7727C58.1537 78.6929 59.9648 78.3924 61.7216 77.8777H61.7558C62.0808 77.7806 62.4024 77.68 62.7206 77.569H62.7548L63.0456 77.4649C64.1529 77.0695 65.2281 76.587 66.2613 76.0218L66.3263 75.9871C66.4392 75.9247 66.5521 75.8623 66.6684 75.7964L66.1382 68.6192L66.9832 63.6969L62.3579 60.502C62.0983 60.8822 61.8076 61.2396 61.489 61.5704C61.0324 62.054 60.4979 62.4552 59.9085 62.7568C56.5901 64.4149 52.8133 61.7786 50.9351 60.1482L50.5075 59.7631C50.0217 59.3156 49.7446 59.0104 49.7446 59.0104L47.432 62.6319L49.3136 72.6501Z" fill="#53526B"/>
<path d="M62.1356 73.0768C62.1356 73.0768 62.3888 75.12 62.7206 77.5621H62.7548L63.0456 77.458C64.1529 77.0626 65.2281 76.5801 66.2614 76.0149L66.3263 75.9802C66.4392 75.9178 66.5521 75.8554 66.6684 75.7895C68.185 74.9263 69.6011 73.893 70.89 72.7091L71.0029 72.6015C71.7097 71.9527 72.3737 71.2574 72.9905 70.5202L73.0623 70.4335C71.841 66.1355 69.2992 64.7827 69.2992 64.7827C69.2992 64.7827 66.9866 63.7142 66.3537 62.2226C65.7208 60.731 60.1343 57.5778 60.1343 57.5778V57.602C60.1343 57.8691 60.0453 60.3147 59.9119 62.7742C59.8264 64.3733 59.7204 65.9794 59.5972 66.9993C59.5705 67.3306 59.5109 67.6583 59.4193 67.9775C58.9848 69.0286 62.1356 73.0768 62.1356 73.0768Z" fill="#555388"/>
<defs>
<linearGradient id="paint0_linear" x1="126.673" y1="269.815" x2="126.673" y2="7.80615" gradientUnits="userSpaceOnUse">
<stop stop-color="#808080" stop-opacity="0.25"/>
<stop offset="0.54" stop-color="#808080" stop-opacity="0.12"/>
<stop offset="1" stop-color="#808080" stop-opacity="0.1"/>
</linearGradient>
<linearGradient id="paint1_linear" x1="12746.5" y1="21484" x2="12746.5" y2="16403.4" gradientUnits="userSpaceOnUse">
<stop stop-color="#808080" stop-opacity="0.25"/>
<stop offset="0.54" stop-color="#808080" stop-opacity="0.12"/>
<stop offset="1" stop-color="#808080" stop-opacity="0.1"/>
</linearGradient>
<linearGradient id="paint2_linear" x1="-59869" y1="163608" x2="-59869" y2="61320.5" gradientUnits="userSpaceOnUse">
<stop stop-color="#808080" stop-opacity="0.25"/>
<stop offset="0.54" stop-color="#808080" stop-opacity="0.12"/>
<stop offset="1" stop-color="#808080" stop-opacity="0.1"/>
</linearGradient>
<linearGradient id="paint3_linear" x1="92712.7" y1="101188" x2="92712.7" y2="9723.38" gradientUnits="userSpaceOnUse">
<stop stop-color="#808080" stop-opacity="0.25"/>
<stop offset="0.54" stop-color="#808080" stop-opacity="0.12"/>
<stop offset="1" stop-color="#808080" stop-opacity="0.1"/>
</linearGradient>
</defs>
</svg>
